G04 #@! TF.GenerationSoftware,KiCad,Pcbnew,(5.1.4)-1*
G04 #@! TF.CreationDate,2021-07-17T16:32:22+09:00*
G04 #@! TF.ProjectId,JIS60,4a495336-302e-46b6-9963-61645f706362,rev?*
G04 #@! TF.SameCoordinates,Original*
G04 #@! TF.FileFunction,Profile,NP*
%FSLAX46Y46*%
G04 Gerber Fmt 4.6, Leading zero omitted, Abs format (unit mm)*
G04 Created by KiCad (PCBNEW (5.1.4)-1) date 2021-07-17 16:32:22*
%MOMM*%
%LPD*%
G04 APERTURE LIST*
%ADD10C,0.300000*%
G04 APERTURE END LIST*
D10*
X126993750Y-267168750D02*
X407993750Y-267168750D01*
X407993750Y-172568750D02*
X149193750Y-172568750D01*
X126993750Y-172568750D02*
G75*
G03X124993750Y-174568750I0J-2000000D01*
G01*
X124993750Y-265168750D02*
G75*
G03X126993750Y-267168750I2000000J0D01*
G01*
X407993750Y-267168750D02*
G75*
G03X409993750Y-265168750I0J2000000D01*
G01*
X409993750Y-174568750D02*
G75*
G03X407993750Y-172568750I-2000000J0D01*
G01*
X124993750Y-265168750D02*
X124993750Y-230468750D01*
X124993750Y-230468750D02*
X128793750Y-230468750D01*
X130193750Y-229068750D02*
G75*
G03X128793750Y-227668750I-1400000J0D01*
G01*
X128793750Y-227668750D02*
X124993750Y-227668750D01*
X124993750Y-227668750D02*
X124993750Y-174568750D01*
X404793750Y-229068750D02*
G75*
G02X406193750Y-227668750I1400000J0D01*
G01*
X406193750Y-230468750D02*
G75*
G02X404793750Y-229068750I0J1400000D01*
G01*
X409993750Y-230468750D02*
X409993750Y-265168750D01*
X409993750Y-227668750D02*
X409993750Y-174568750D01*
X406193750Y-230468750D02*
X409993750Y-230468750D01*
X406193750Y-227668750D02*
X409993750Y-227668750D01*
X128793750Y-230468750D02*
G75*
G03X130193750Y-229068750I0J1400000D01*
G01*
X137693750Y-172068750D02*
X148693750Y-172068750D01*
X137193750Y-172568750D02*
G75*
G03X137693750Y-172068750I0J500000D01*
G01*
X148693750Y-172068750D02*
G75*
G03X149193750Y-172568750I500000J0D01*
G01*
X126993750Y-172568750D02*
X137193750Y-172568750D01*
M02*
