M48
; DRILL file {KiCad (5.1.4)-1} date 7/17/2021 4:32:23 PM
; FORMAT={-:-/ absolute / inch / decimal}
; #@! TF.CreationDate,2021-07-17T16:32:23+09:00
; #@! TF.GenerationSoftware,Kicad,Pcbnew,(5.1.4)-1
; #@! TF.FileFunction,Plated,1,2,PTH
FMAT,2
INCH
T1C0.0157
T2C0.0236
T3C0.0866
%
G90
G05
T1
X5.05Y-7.435
X5.19Y-7.885
X5.19Y-8.555
X5.345Y-6.92
X5.43Y-6.94
X5.47Y-9.385
X5.47Y-9.84
X5.505Y-7.095
X5.56Y-7.335
X5.585Y-7.095
X5.59Y-7.445
X5.595Y-7.165
X5.66Y-7.785
X5.695Y-7.095
X5.73Y-7.095
X5.76Y-7.275
X5.765Y-7.095
X5.8Y-7.28
X5.82Y-7.57
X5.87Y-8.47
X5.875Y-7.72
X6.04Y-9.955
X6.095Y-8.47
X6.105Y-8.9
X6.125Y-7.885
X6.125Y-8.5
X6.325Y-7.685
X6.36Y-7.665
X6.375Y-9.84
X6.41Y-9.84
X6.5Y-7.135
X6.535Y-8.9
X6.61Y-9.62
X6.61Y-9.66
X6.66Y-9.705
X6.66Y-9.74
X6.69Y-9.98
X6.7Y-9.385
X6.7Y-9.605
X6.85Y-7.885
X7.065Y-8.635
X7.25Y-7.135
X7.44Y-9.385
X7.46Y-9.585
X7.535Y-9.98
X7.6Y-7.885
X7.815Y-8.635
X8.0Y-7.135
X8.17Y-10.24
X8.2Y-9.385
X8.2Y-9.565
X8.35Y-7.885
X8.355Y-9.11
X8.565Y-8.635
X8.75Y-7.135
X8.81Y-9.745
X8.8662Y-9.8537
X8.925Y-10.335
X8.94Y-9.385
X8.94Y-9.625
X8.995Y-10.245
X9.0Y-9.945
X9.0575Y-9.8537
X9.1Y-7.885
X9.1125Y-10.2937
X9.2725Y-10.3125
X9.295Y-10.25
X9.315Y-8.635
X9.4106Y-10.3006
X9.4125Y-9.9138
X9.43Y-10.18
X9.47Y-7.295
X9.5Y-7.135
X9.54Y-9.68
X9.56Y-8.795
X9.57Y-9.7
X9.6Y-9.72
X9.67Y-9.11
X9.67Y-9.95
X9.7Y-9.385
X9.7Y-9.74
X9.775Y-8.045
X9.85Y-7.885
X10.065Y-8.85
X10.25Y-7.135
X10.25Y-9.98
X10.44Y-9.385
X10.6Y-7.885
X10.815Y-8.635
X11.0Y-7.135
X11.19Y-9.385
X11.19Y-9.88
X11.35Y-7.885
X11.565Y-8.635
X11.75Y-7.135
X11.94Y-9.385
X11.94Y-9.86
X12.1Y-7.885
X12.315Y-8.635
X12.5Y-7.135
X12.69Y-9.385
X12.85Y-7.885
X12.97Y-9.98
X13.065Y-8.635
X13.25Y-7.135
X13.44Y-9.385
X13.6Y-7.885
X13.815Y-8.635
X13.815Y-9.98
X14.0Y-7.135
X14.01Y-7.315
X14.19Y-9.385
X14.35Y-7.885
X14.565Y-9.98
X14.75Y-7.135
X14.78Y-7.315
X14.905Y-8.095
X14.945Y-8.055
X15.1Y-8.765
X15.12Y-9.305
X15.14Y-8.74
X15.14Y-8.835
X15.41Y-9.98
X15.5Y-7.135
X15.5Y-7.365
T3
X5.9131Y-7.8925
T2
G00X5.4674Y-6.8216
M15
G01X5.4674Y-6.8452
M16
G05
G00X5.4674Y-6.9763
M15
G01X5.4674Y-7.0196
M16
G05
G00X5.8076Y-6.8216
M15
G01X5.8076Y-6.8452
M16
G05
G00X5.8076Y-6.9763
M15
G01X5.8076Y-7.0196
M16
G05
T3
G00X9.9131Y-8.6444
M15
G01X10.0234Y-8.6444
M16
G05
G00X15.1041Y-7.8925
M15
G01X15.2143Y-7.8925
M16
G05
T0
M30
