M48
; DRILL file {KiCad (5.1.4)-1} date 7/17/2021 4:32:23 PM
; FORMAT={-:-/ absolute / inch / decimal}
; #@! TF.CreationDate,2021-07-17T16:32:23+09:00
; #@! TF.GenerationSoftware,Kicad,Pcbnew,(5.1.4)-1
; #@! TF.FileFunction,NonPlated,1,2,NPTH
FMAT,2
INCH
T1C0.0256
T2C0.0689
T3C0.1181
T4C0.1200
T5C0.1570
%
G90
G05
T1
X5.5237Y-6.9771
X5.7513Y-6.9771
T2
X9.7687Y-9.4062
X10.1687Y-9.4062
X9.5812Y-7.1562
X9.9812Y-7.1562
X7.8937Y-8.6562
X8.2937Y-8.6562
X9.2062Y-7.9062
X9.6062Y-7.9062
X14.8312Y-7.1562
X15.2312Y-7.1562
X13.8937Y-8.6562
X14.2937Y-8.6562
X6.0187Y-10.1562
X6.4188Y-10.1562
X8.6437Y-8.6562
X9.0437Y-8.6562
X12.2062Y-7.9062
X12.6062Y-7.9062
X13.8937Y-10.1562
X14.2937Y-10.1562
X9.9562Y-7.9062
X10.3562Y-7.9062
X14.6437Y-8.6562
X15.0437Y-8.6562
X11.6437Y-8.6562
X12.0437Y-8.6562
X10.7062Y-10.1562
X11.1062Y-10.1562
X7.6125Y-10.1562
X8.0125Y-10.1562
X5.2687Y-7.9062
X5.6688Y-7.9062
X13.05Y-10.1562
X13.45Y-10.1562
X6.5812Y-7.1562
X6.9813Y-7.1562
X6.3937Y-8.6562
X6.7938Y-8.6562
X7.5187Y-9.4062
X7.9188Y-9.4062
X6.2062Y-7.9062
X6.6063Y-7.9062
X8.0812Y-7.1562
X8.4812Y-7.1562
X12.9562Y-7.9062
X13.3562Y-7.9062
X12.7687Y-9.4062
X13.1687Y-9.4062
X9.3937Y-8.6562
X9.7937Y-8.6562
X8.8312Y-7.1562
X9.2312Y-7.1562
X14.0812Y-7.1562
X14.4812Y-7.1562
X5.55Y-9.4062
X5.95Y-9.4062
X14.6437Y-10.1562
X15.0437Y-10.1562
X13.3312Y-7.1562
X13.7312Y-7.1562
X10.3438Y-8.4562
X10.3438Y-8.8562
X10.3312Y-10.1562
X10.7312Y-10.1562
X11.0812Y-7.1562
X11.4812Y-7.1562
X6.7687Y-9.4062
X7.1688Y-9.4062
X8.2687Y-9.4062
X8.6687Y-9.4062
X11.8312Y-7.1562
X12.2312Y-7.1562
X5.8312Y-7.1562
X6.2313Y-7.1562
X11.2687Y-9.4062
X11.6687Y-9.4062
X15.4875Y-10.1562
X15.8875Y-10.1562
X9.0187Y-9.4062
X9.4187Y-9.4062
X13.5187Y-9.4062
X13.9187Y-9.4062
X7.7062Y-7.9062
X8.1062Y-7.9062
X15.5812Y-7.1562
X15.9812Y-7.1562
X15.6875Y-8.0812
X15.6875Y-8.4812
X10.3312Y-7.1562
X10.7312Y-7.1562
X14.4562Y-7.9062
X14.8562Y-7.9062
X12.3937Y-8.6562
X12.7937Y-8.6562
X10.7062Y-7.9062
X11.1062Y-7.9062
X5.3625Y-8.6562
X5.7625Y-8.6562
X10.8937Y-8.6562
X11.2937Y-8.6562
X10.5187Y-9.4062
X10.9187Y-9.4062
X13.1437Y-8.6562
X13.5437Y-8.6562
X5.175Y-10.1562
X5.575Y-10.1562
X7.1437Y-8.6562
X7.5438Y-8.6562
X15.3Y-9.4062
X15.7Y-9.4062
X11.4562Y-7.9062
X11.8562Y-7.9062
X7.3312Y-7.1562
X7.7313Y-7.1562
X6.7687Y-10.1562
X7.1688Y-10.1562
X8.4562Y-7.9062
X8.8562Y-7.9062
X13.7062Y-7.9062
X14.1062Y-7.9062
X14.2687Y-9.4062
X14.6687Y-9.4062
X12.5812Y-7.1562
X12.9812Y-7.1562
X6.9562Y-7.9062
X7.3563Y-7.9062
X5.0812Y-7.1562
X5.4813Y-7.1562
X12.0187Y-9.4062
X12.4187Y-9.4062
T3
X8.5062Y-7.8062
X8.7562Y-7.7062
X13.7562Y-7.8062
X14.0062Y-7.7062
X14.3187Y-9.3063
X14.5687Y-9.2062
X12.6312Y-7.0562
X12.8812Y-6.9562
X7.0062Y-7.8062
X7.2562Y-7.7062
X5.1812Y-7.3563
X5.4312Y-7.2562
X12.0687Y-9.3063
X12.3187Y-9.2062
X9.8187Y-9.3063
X10.0687Y-9.2062
X9.6312Y-7.0562
X9.8812Y-6.9562
X7.9437Y-8.5563
X8.1937Y-8.4562
X9.2562Y-7.8062
X9.5062Y-7.7062
X14.8812Y-7.0562
X15.1312Y-6.9562
X13.9437Y-8.5563
X14.1937Y-8.4562
X6.0687Y-10.0563
X6.3187Y-9.9562
X8.6937Y-8.5563
X8.9437Y-8.4562
X12.2562Y-7.8062
X12.5062Y-7.7062
X13.9437Y-10.0563
X14.1937Y-9.9562
X10.0062Y-7.8062
X10.2562Y-7.7062
X14.6937Y-8.5563
X14.9437Y-8.4562
X11.6937Y-8.5563
X11.9437Y-8.4562
X10.8063Y-10.3562
X11.0563Y-10.2562
X7.6625Y-10.0563
X7.9125Y-9.9562
X5.3187Y-7.8062
X5.5687Y-7.7062
X13.1Y-10.0563
X13.35Y-9.9562
X6.6312Y-7.0562
X6.8812Y-6.9562
X6.4437Y-8.5563
X6.6937Y-8.4562
X7.5687Y-9.3063
X7.8187Y-9.2062
X6.2562Y-7.8062
X6.5062Y-7.7062
X8.1312Y-7.0562
X8.3812Y-6.9562
X13.0062Y-7.8062
X13.2562Y-7.7062
X12.8187Y-9.3063
X13.0687Y-9.2062
X9.4437Y-8.5563
X9.6937Y-8.4562
X8.8812Y-7.0562
X9.1312Y-6.9562
X14.1312Y-7.0562
X14.3812Y-6.9562
X5.6Y-9.3063
X5.85Y-9.2062
X14.6937Y-10.0563
X14.9437Y-9.9562
X13.3812Y-7.0562
X13.6312Y-6.9562
X10.4437Y-8.5062
X10.5437Y-8.7562
X10.3812Y-10.0563
X10.6312Y-9.9562
X11.1312Y-7.0562
X11.3812Y-6.9562
X6.8187Y-9.3063
X7.0687Y-9.2062
X8.3187Y-9.3063
X8.5687Y-9.2062
X11.8812Y-7.0562
X12.1312Y-6.9562
X5.9312Y-7.3563
X6.1812Y-7.2562
X11.3187Y-9.3063
X11.5687Y-9.2062
X15.5375Y-10.0563
X15.7875Y-9.9562
X9.0687Y-9.3063
X9.3187Y-9.2062
X13.5687Y-9.3063
X13.8187Y-9.2062
X7.7562Y-7.8062
X8.0062Y-7.7062
X15.6312Y-7.0562
X15.8812Y-6.9562
X15.7875Y-8.1312
X15.8875Y-8.3812
X10.3812Y-7.0562
X10.6312Y-6.9562
X14.5062Y-7.8062
X14.7562Y-7.7062
X12.4437Y-8.5563
X12.6937Y-8.4562
X10.7562Y-7.8062
X11.0062Y-7.7062
X5.4125Y-8.5563
X5.6625Y-8.4562
X10.9437Y-8.5563
X11.1937Y-8.4562
X10.5687Y-9.3063
X10.8187Y-9.2062
X13.1937Y-8.5563
X13.4437Y-8.4562
X5.225Y-10.0563
X5.475Y-9.9562
X7.1937Y-8.5563
X7.4437Y-8.4562
X15.35Y-9.3063
X15.6Y-9.2062
X11.5062Y-7.8062
X11.7562Y-7.7062
X7.3812Y-7.0562
X7.6312Y-6.9562
X6.8187Y-10.0563
X7.0687Y-9.9562
T4
X5.28Y-9.1312
X6.22Y-9.1312
X8.6562Y-10.4313
X12.4062Y-10.4313
X15.4125Y-7.8113
X15.4125Y-8.7513
T5
X6.4062Y-7.9062
X8.2812Y-7.1562
X13.1562Y-7.9062
X12.9688Y-9.4062
X9.5938Y-8.6562
X9.0312Y-7.1562
X14.2812Y-7.1562
X5.28Y-9.7312
X5.75Y-9.4062
X6.22Y-9.7312
X14.8438Y-10.1562
X13.5312Y-7.1562
X10.3438Y-8.6562
X8.6562Y-9.8312
X10.5312Y-10.1562
X12.4062Y-9.8312
X11.2812Y-7.1562
X6.9688Y-9.4062
X8.4688Y-9.4062
X12.0312Y-7.1562
X6.0312Y-7.1562
X11.4688Y-9.4062
X15.6875Y-10.1562
X9.2188Y-9.4062
X13.7188Y-9.4062
X7.9062Y-7.9062
X15.7812Y-7.1562
X15.6875Y-8.2812
X16.0125Y-7.8113
X16.0125Y-8.7513
X10.5312Y-7.1562
X14.6562Y-7.9062
X12.5938Y-8.6562
X10.9062Y-7.9062
X5.5625Y-8.6562
X11.0938Y-8.6562
X10.7188Y-9.4062
X13.3438Y-8.6562
X5.375Y-10.1562
X7.3438Y-8.6562
X15.5Y-9.4062
X11.6562Y-7.9062
X7.5312Y-7.1562
X6.9688Y-10.1562
X8.6562Y-7.9062
X13.9062Y-7.9062
X14.4688Y-9.4062
X12.7812Y-7.1562
X7.1562Y-7.9062
X5.2812Y-7.1562
X12.2188Y-9.4062
X9.9688Y-9.4062
X9.7812Y-7.1562
X8.0938Y-8.6562
X9.4062Y-7.9062
X15.0312Y-7.1562
X14.0938Y-8.6562
X6.2188Y-10.1562
X8.8438Y-8.6562
X12.4062Y-7.9062
X14.0938Y-10.1562
X10.1562Y-7.9062
X14.8438Y-8.6562
X11.8438Y-8.6562
X10.9062Y-10.1562
X7.8125Y-10.1562
X5.4688Y-7.9062
X13.25Y-10.1562
X6.7812Y-7.1562
X6.5938Y-8.6562
X7.7188Y-9.4062
T0
M30
