G04 #@! TF.GenerationSoftware,KiCad,Pcbnew,(5.1.4)-1*
G04 #@! TF.CreationDate,2021-07-17T16:32:22+09:00*
G04 #@! TF.ProjectId,JIS60,4a495336-302e-46b6-9963-61645f706362,rev?*
G04 #@! TF.SameCoordinates,Original*
G04 #@! TF.FileFunction,Legend,Top*
G04 #@! TF.FilePolarity,Positive*
%FSLAX46Y46*%
G04 Gerber Fmt 4.6, Leading zero omitted, Abs format (unit mm)*
G04 Created by KiCad (PCBNEW (5.1.4)-1) date 2021-07-17 16:32:22*
%MOMM*%
%LPD*%
G04 APERTURE LIST*
%ADD10C,0.600000*%
%ADD11C,0.010000*%
%ADD12C,2.501900*%
%ADD13C,2.150000*%
%ADD14C,3.400000*%
%ADD15C,4.387800*%
%ADD16C,1.050000*%
%ADD17O,1.400000X2.500000*%
%ADD18O,1.400000X2.000000*%
%ADD19C,3.448000*%
%ADD20C,7.400000*%
G04 APERTURE END LIST*
%LPC*%
D10*
X292168964Y-256000523D02*
X291811821Y-258857666D01*
X291549916Y-259429095D01*
X291121345Y-259810047D01*
X290526107Y-260000523D01*
X290145154Y-260000523D01*
X293573726Y-260000523D02*
X294073726Y-256000523D01*
X295597535Y-256000523D01*
X295954678Y-256191000D01*
X296121345Y-256381476D01*
X296264202Y-256762428D01*
X296192773Y-257333857D01*
X295954678Y-257714809D01*
X295740392Y-257905285D01*
X295335630Y-258095761D01*
X293811821Y-258095761D01*
X299788011Y-256000523D02*
X299026107Y-256000523D01*
X298621345Y-256191000D01*
X298407059Y-256381476D01*
X297954678Y-256952904D01*
X297668964Y-257714809D01*
X297478488Y-259238619D01*
X297621345Y-259619571D01*
X297788011Y-259810047D01*
X298145154Y-260000523D01*
X298907059Y-260000523D01*
X299311821Y-259810047D01*
X299526107Y-259619571D01*
X299764202Y-259238619D01*
X299883250Y-258286238D01*
X299740392Y-257905285D01*
X299573726Y-257714809D01*
X299216583Y-257524333D01*
X298454678Y-257524333D01*
X298049916Y-257714809D01*
X297835630Y-257905285D01*
X297597535Y-258286238D01*
X302645154Y-256000523D02*
X303026107Y-256000523D01*
X303383250Y-256191000D01*
X303549916Y-256381476D01*
X303692773Y-256762428D01*
X303788011Y-257524333D01*
X303668964Y-258476714D01*
X303383250Y-259238619D01*
X303145154Y-259619571D01*
X302930869Y-259810047D01*
X302526107Y-260000523D01*
X302145154Y-260000523D01*
X301788011Y-259810047D01*
X301621345Y-259619571D01*
X301478488Y-259238619D01*
X301383250Y-258476714D01*
X301502297Y-257524333D01*
X301788011Y-256762428D01*
X302026107Y-256381476D01*
X302240392Y-256191000D01*
X302645154Y-256000523D01*
X291851464Y-255651273D02*
X291494321Y-258508416D01*
X291232416Y-259079845D01*
X290803845Y-259460797D01*
X290208607Y-259651273D01*
X289827654Y-259651273D01*
X293256226Y-259651273D02*
X293756226Y-255651273D01*
X295280035Y-255651273D01*
X295637178Y-255841750D01*
X295803845Y-256032226D01*
X295946702Y-256413178D01*
X295875273Y-256984607D01*
X295637178Y-257365559D01*
X295422892Y-257556035D01*
X295018130Y-257746511D01*
X293494321Y-257746511D01*
X299470511Y-255651273D02*
X298708607Y-255651273D01*
X298303845Y-255841750D01*
X298089559Y-256032226D01*
X297637178Y-256603654D01*
X297351464Y-257365559D01*
X297160988Y-258889369D01*
X297303845Y-259270321D01*
X297470511Y-259460797D01*
X297827654Y-259651273D01*
X298589559Y-259651273D01*
X298994321Y-259460797D01*
X299208607Y-259270321D01*
X299446702Y-258889369D01*
X299565750Y-257936988D01*
X299422892Y-257556035D01*
X299256226Y-257365559D01*
X298899083Y-257175083D01*
X298137178Y-257175083D01*
X297732416Y-257365559D01*
X297518130Y-257556035D01*
X297280035Y-257936988D01*
X302327654Y-255651273D02*
X302708607Y-255651273D01*
X303065750Y-255841750D01*
X303232416Y-256032226D01*
X303375273Y-256413178D01*
X303470511Y-257175083D01*
X303351464Y-258127464D01*
X303065750Y-258889369D01*
X302827654Y-259270321D01*
X302613369Y-259460797D01*
X302208607Y-259651273D01*
X301827654Y-259651273D01*
X301470511Y-259460797D01*
X301303845Y-259270321D01*
X301160988Y-258889369D01*
X301065750Y-258127464D01*
X301184797Y-257175083D01*
X301470511Y-256413178D01*
X301708607Y-256032226D01*
X301922892Y-255841750D01*
X302327654Y-255651273D01*
D11*
G36*
X252603000Y-256889250D02*
G01*
X252198188Y-256889250D01*
X252198188Y-256484438D01*
X252603000Y-256484438D01*
X252603000Y-256889250D01*
X252603000Y-256889250D01*
G37*
X252603000Y-256889250D02*
X252198188Y-256889250D01*
X252198188Y-256484438D01*
X252603000Y-256484438D01*
X252603000Y-256889250D01*
G36*
X253007813Y-257675063D02*
G01*
X252603000Y-257675063D01*
X252603000Y-257294063D01*
X253007813Y-257294063D01*
X253007813Y-257675063D01*
X253007813Y-257675063D01*
G37*
X253007813Y-257675063D02*
X252603000Y-257675063D01*
X252603000Y-257294063D01*
X253007813Y-257294063D01*
X253007813Y-257675063D01*
G36*
X252198188Y-257675063D02*
G01*
X251817188Y-257675063D01*
X251817188Y-257294063D01*
X252198188Y-257294063D01*
X252198188Y-257675063D01*
X252198188Y-257675063D01*
G37*
X252198188Y-257675063D02*
X251817188Y-257675063D01*
X251817188Y-257294063D01*
X252198188Y-257294063D01*
X252198188Y-257675063D01*
G36*
X253388813Y-258484688D02*
G01*
X253007813Y-258484688D01*
X253007813Y-258079875D01*
X253388813Y-258079875D01*
X253388813Y-258484688D01*
X253388813Y-258484688D01*
G37*
X253388813Y-258484688D02*
X253007813Y-258484688D01*
X253007813Y-258079875D01*
X253388813Y-258079875D01*
X253388813Y-258484688D01*
G36*
X252603000Y-258484688D02*
G01*
X252198188Y-258484688D01*
X252198188Y-258079875D01*
X252603000Y-258079875D01*
X252603000Y-258484688D01*
X252603000Y-258484688D01*
G37*
X252603000Y-258484688D02*
X252198188Y-258484688D01*
X252198188Y-258079875D01*
X252603000Y-258079875D01*
X252603000Y-258484688D01*
G36*
X251817188Y-258484688D02*
G01*
X251412375Y-258484688D01*
X251412375Y-258079875D01*
X251817188Y-258079875D01*
X251817188Y-258484688D01*
X251817188Y-258484688D01*
G37*
X251817188Y-258484688D02*
X251412375Y-258484688D01*
X251412375Y-258079875D01*
X251817188Y-258079875D01*
X251817188Y-258484688D01*
G36*
X253793625Y-259270500D02*
G01*
X253388813Y-259270500D01*
X253388813Y-258865688D01*
X253793625Y-258865688D01*
X253793625Y-259270500D01*
X253793625Y-259270500D01*
G37*
X253793625Y-259270500D02*
X253388813Y-259270500D01*
X253388813Y-258865688D01*
X253793625Y-258865688D01*
X253793625Y-259270500D01*
G36*
X251412375Y-259270500D02*
G01*
X251007563Y-259270500D01*
X251007563Y-258865688D01*
X251412375Y-258865688D01*
X251412375Y-259270500D01*
X251412375Y-259270500D01*
G37*
X251412375Y-259270500D02*
X251007563Y-259270500D01*
X251007563Y-258865688D01*
X251412375Y-258865688D01*
X251412375Y-259270500D01*
G36*
X252416469Y-254996795D02*
G01*
X252540587Y-254998165D01*
X252652299Y-255002322D01*
X252754892Y-255009669D01*
X252851656Y-255020610D01*
X252945878Y-255035548D01*
X253040847Y-255054887D01*
X253139851Y-255079031D01*
X253185130Y-255091168D01*
X253393677Y-255156406D01*
X253595765Y-255235742D01*
X253790628Y-255328778D01*
X253977499Y-255435118D01*
X254155614Y-255554366D01*
X254307760Y-255672367D01*
X254465428Y-255813092D01*
X254612765Y-255964537D01*
X254749086Y-256125635D01*
X254873708Y-256295317D01*
X254985947Y-256472516D01*
X255085120Y-256656166D01*
X255170542Y-256845197D01*
X255241530Y-257038543D01*
X255290284Y-257206553D01*
X255323355Y-257346539D01*
X255348715Y-257478475D01*
X255367107Y-257607747D01*
X255379275Y-257739743D01*
X255385961Y-257879850D01*
X255386614Y-257905250D01*
X255383895Y-258123547D01*
X255365700Y-258338330D01*
X255332035Y-258549571D01*
X255282906Y-258757239D01*
X255218319Y-258961305D01*
X255154122Y-259125237D01*
X255126039Y-259190502D01*
X255101977Y-259244660D01*
X255080108Y-259291363D01*
X255058607Y-259334263D01*
X255035646Y-259377013D01*
X255009400Y-259423265D01*
X254980275Y-259472906D01*
X254861056Y-259659177D01*
X254730952Y-259833903D01*
X254589829Y-259997215D01*
X254437555Y-260149246D01*
X254273997Y-260290130D01*
X254099024Y-260419998D01*
X253916656Y-260536525D01*
X253863827Y-260567494D01*
X253817914Y-260593471D01*
X253775265Y-260616281D01*
X253732228Y-260637751D01*
X253685151Y-260659707D01*
X253630381Y-260683975D01*
X253568987Y-260710372D01*
X253472754Y-260749919D01*
X253384036Y-260782958D01*
X253296922Y-260811445D01*
X253205498Y-260837339D01*
X253122906Y-260858072D01*
X252958390Y-260893626D01*
X252801295Y-260919303D01*
X252647067Y-260935643D01*
X252491149Y-260943186D01*
X252400594Y-260943763D01*
X252349375Y-260943248D01*
X252301254Y-260942543D01*
X252259374Y-260941710D01*
X252226878Y-260940813D01*
X252206910Y-260939915D01*
X252206125Y-260939859D01*
X251989951Y-260915907D01*
X251777194Y-260876920D01*
X251568713Y-260823217D01*
X251365368Y-260755113D01*
X251168016Y-260672926D01*
X250977518Y-260576975D01*
X250794732Y-260467576D01*
X250643776Y-260362546D01*
X250470849Y-260224199D01*
X250310165Y-260075838D01*
X250161951Y-259917789D01*
X250026429Y-259750382D01*
X249903824Y-259573944D01*
X249794361Y-259388802D01*
X249698263Y-259195285D01*
X249615756Y-258993721D01*
X249547063Y-258784438D01*
X249534918Y-258741380D01*
X249508552Y-258639585D01*
X249487167Y-258543261D01*
X249470359Y-258449117D01*
X249457725Y-258353867D01*
X249448860Y-258254220D01*
X249443362Y-258146890D01*
X249440826Y-258028586D01*
X249440545Y-257972719D01*
X249441220Y-257917358D01*
X249973294Y-257917358D01*
X249973397Y-257997496D01*
X249975063Y-258077160D01*
X249978259Y-258152287D01*
X249982956Y-258218810D01*
X249986676Y-258254500D01*
X250018550Y-258451798D01*
X250065201Y-258643413D01*
X250126451Y-258828972D01*
X250202119Y-259008099D01*
X250292027Y-259180419D01*
X250395994Y-259345559D01*
X250513841Y-259503143D01*
X250645388Y-259652797D01*
X250667724Y-259676010D01*
X250801958Y-259803084D01*
X250947660Y-259921020D01*
X251102131Y-260027840D01*
X251262669Y-260121566D01*
X251308458Y-260145254D01*
X251382866Y-260181903D01*
X251448107Y-260212122D01*
X251508604Y-260237690D01*
X251568778Y-260260384D01*
X251633051Y-260281983D01*
X251698125Y-260301977D01*
X251887338Y-260351390D01*
X252073089Y-260385841D01*
X252256827Y-260405464D01*
X252440003Y-260410392D01*
X252624064Y-260400761D01*
X252690606Y-260393781D01*
X252877938Y-260364837D01*
X253057519Y-260323028D01*
X253231857Y-260267604D01*
X253403459Y-260197814D01*
X253500416Y-260151616D01*
X253671048Y-260058197D01*
X253830464Y-259954462D01*
X253979422Y-259839724D01*
X254118679Y-259713300D01*
X254248994Y-259574504D01*
X254371124Y-259422653D01*
X254479392Y-259267009D01*
X254504518Y-259225818D01*
X254533841Y-259173690D01*
X254565541Y-259114246D01*
X254597799Y-259051106D01*
X254628793Y-258987890D01*
X254656706Y-258928217D01*
X254679715Y-258875707D01*
X254693153Y-258841875D01*
X254756020Y-258650334D01*
X254803416Y-258457595D01*
X254835300Y-258264200D01*
X254851630Y-258070690D01*
X254852368Y-257877607D01*
X254837472Y-257685492D01*
X254806902Y-257494886D01*
X254797099Y-257448844D01*
X254763450Y-257312551D01*
X254725142Y-257186368D01*
X254680204Y-257064757D01*
X254626663Y-256942182D01*
X254589004Y-256864708D01*
X254495299Y-256695860D01*
X254388474Y-256535423D01*
X254269298Y-256384118D01*
X254138537Y-256242664D01*
X253996960Y-256111781D01*
X253845334Y-255992190D01*
X253684427Y-255884610D01*
X253515007Y-255789761D01*
X253370825Y-255722230D01*
X253199197Y-255655835D01*
X253026643Y-255603837D01*
X252851156Y-255565828D01*
X252670726Y-255541401D01*
X252483345Y-255530147D01*
X252420438Y-255529257D01*
X252222343Y-255535627D01*
X252030715Y-255556272D01*
X251844781Y-255591423D01*
X251663765Y-255641317D01*
X251486894Y-255706185D01*
X251313394Y-255786263D01*
X251142491Y-255881785D01*
X251041794Y-255945994D01*
X250902361Y-256047522D01*
X250768163Y-256162028D01*
X250640841Y-256287589D01*
X250522035Y-256422281D01*
X250413386Y-256564181D01*
X250316535Y-256711365D01*
X250233122Y-256861911D01*
X250198326Y-256934830D01*
X250136923Y-257079689D01*
X250086692Y-257218928D01*
X250046435Y-257356876D01*
X250014956Y-257497864D01*
X249991056Y-257646221D01*
X249982655Y-257714750D01*
X249977892Y-257771920D01*
X249974782Y-257840811D01*
X249973294Y-257917358D01*
X249441220Y-257917358D01*
X249442290Y-257829723D01*
X249448164Y-257698856D01*
X249458738Y-257576775D01*
X249474585Y-257460135D01*
X249496277Y-257345594D01*
X249524387Y-257229809D01*
X249559486Y-257109437D01*
X249602147Y-256981134D01*
X249617841Y-256936875D01*
X249696226Y-256742156D01*
X249789066Y-256553822D01*
X249896172Y-256372135D01*
X250017352Y-256197358D01*
X250152417Y-256029753D01*
X250301174Y-255869583D01*
X250463433Y-255717110D01*
X250570271Y-255626929D01*
X250656100Y-255561436D01*
X250753639Y-255494110D01*
X250859248Y-255427162D01*
X250969286Y-255362805D01*
X251080113Y-255303250D01*
X251188089Y-255250708D01*
X251194094Y-255247965D01*
X251264054Y-255218092D01*
X251345235Y-255186706D01*
X251433267Y-255155286D01*
X251523779Y-255125312D01*
X251612401Y-255098261D01*
X251694764Y-255075614D01*
X251726650Y-255067721D01*
X251819875Y-255046953D01*
X251908849Y-255030293D01*
X251996853Y-255017402D01*
X252087169Y-255007945D01*
X252183078Y-255001582D01*
X252287860Y-254997978D01*
X252404795Y-254996794D01*
X252416469Y-254996795D01*
X252416469Y-254996795D01*
G37*
X252416469Y-254996795D02*
X252540587Y-254998165D01*
X252652299Y-255002322D01*
X252754892Y-255009669D01*
X252851656Y-255020610D01*
X252945878Y-255035548D01*
X253040847Y-255054887D01*
X253139851Y-255079031D01*
X253185130Y-255091168D01*
X253393677Y-255156406D01*
X253595765Y-255235742D01*
X253790628Y-255328778D01*
X253977499Y-255435118D01*
X254155614Y-255554366D01*
X254307760Y-255672367D01*
X254465428Y-255813092D01*
X254612765Y-255964537D01*
X254749086Y-256125635D01*
X254873708Y-256295317D01*
X254985947Y-256472516D01*
X255085120Y-256656166D01*
X255170542Y-256845197D01*
X255241530Y-257038543D01*
X255290284Y-257206553D01*
X255323355Y-257346539D01*
X255348715Y-257478475D01*
X255367107Y-257607747D01*
X255379275Y-257739743D01*
X255385961Y-257879850D01*
X255386614Y-257905250D01*
X255383895Y-258123547D01*
X255365700Y-258338330D01*
X255332035Y-258549571D01*
X255282906Y-258757239D01*
X255218319Y-258961305D01*
X255154122Y-259125237D01*
X255126039Y-259190502D01*
X255101977Y-259244660D01*
X255080108Y-259291363D01*
X255058607Y-259334263D01*
X255035646Y-259377013D01*
X255009400Y-259423265D01*
X254980275Y-259472906D01*
X254861056Y-259659177D01*
X254730952Y-259833903D01*
X254589829Y-259997215D01*
X254437555Y-260149246D01*
X254273997Y-260290130D01*
X254099024Y-260419998D01*
X253916656Y-260536525D01*
X253863827Y-260567494D01*
X253817914Y-260593471D01*
X253775265Y-260616281D01*
X253732228Y-260637751D01*
X253685151Y-260659707D01*
X253630381Y-260683975D01*
X253568987Y-260710372D01*
X253472754Y-260749919D01*
X253384036Y-260782958D01*
X253296922Y-260811445D01*
X253205498Y-260837339D01*
X253122906Y-260858072D01*
X252958390Y-260893626D01*
X252801295Y-260919303D01*
X252647067Y-260935643D01*
X252491149Y-260943186D01*
X252400594Y-260943763D01*
X252349375Y-260943248D01*
X252301254Y-260942543D01*
X252259374Y-260941710D01*
X252226878Y-260940813D01*
X252206910Y-260939915D01*
X252206125Y-260939859D01*
X251989951Y-260915907D01*
X251777194Y-260876920D01*
X251568713Y-260823217D01*
X251365368Y-260755113D01*
X251168016Y-260672926D01*
X250977518Y-260576975D01*
X250794732Y-260467576D01*
X250643776Y-260362546D01*
X250470849Y-260224199D01*
X250310165Y-260075838D01*
X250161951Y-259917789D01*
X250026429Y-259750382D01*
X249903824Y-259573944D01*
X249794361Y-259388802D01*
X249698263Y-259195285D01*
X249615756Y-258993721D01*
X249547063Y-258784438D01*
X249534918Y-258741380D01*
X249508552Y-258639585D01*
X249487167Y-258543261D01*
X249470359Y-258449117D01*
X249457725Y-258353867D01*
X249448860Y-258254220D01*
X249443362Y-258146890D01*
X249440826Y-258028586D01*
X249440545Y-257972719D01*
X249441220Y-257917358D01*
X249973294Y-257917358D01*
X249973397Y-257997496D01*
X249975063Y-258077160D01*
X249978259Y-258152287D01*
X249982956Y-258218810D01*
X249986676Y-258254500D01*
X250018550Y-258451798D01*
X250065201Y-258643413D01*
X250126451Y-258828972D01*
X250202119Y-259008099D01*
X250292027Y-259180419D01*
X250395994Y-259345559D01*
X250513841Y-259503143D01*
X250645388Y-259652797D01*
X250667724Y-259676010D01*
X250801958Y-259803084D01*
X250947660Y-259921020D01*
X251102131Y-260027840D01*
X251262669Y-260121566D01*
X251308458Y-260145254D01*
X251382866Y-260181903D01*
X251448107Y-260212122D01*
X251508604Y-260237690D01*
X251568778Y-260260384D01*
X251633051Y-260281983D01*
X251698125Y-260301977D01*
X251887338Y-260351390D01*
X252073089Y-260385841D01*
X252256827Y-260405464D01*
X252440003Y-260410392D01*
X252624064Y-260400761D01*
X252690606Y-260393781D01*
X252877938Y-260364837D01*
X253057519Y-260323028D01*
X253231857Y-260267604D01*
X253403459Y-260197814D01*
X253500416Y-260151616D01*
X253671048Y-260058197D01*
X253830464Y-259954462D01*
X253979422Y-259839724D01*
X254118679Y-259713300D01*
X254248994Y-259574504D01*
X254371124Y-259422653D01*
X254479392Y-259267009D01*
X254504518Y-259225818D01*
X254533841Y-259173690D01*
X254565541Y-259114246D01*
X254597799Y-259051106D01*
X254628793Y-258987890D01*
X254656706Y-258928217D01*
X254679715Y-258875707D01*
X254693153Y-258841875D01*
X254756020Y-258650334D01*
X254803416Y-258457595D01*
X254835300Y-258264200D01*
X254851630Y-258070690D01*
X254852368Y-257877607D01*
X254837472Y-257685492D01*
X254806902Y-257494886D01*
X254797099Y-257448844D01*
X254763450Y-257312551D01*
X254725142Y-257186368D01*
X254680204Y-257064757D01*
X254626663Y-256942182D01*
X254589004Y-256864708D01*
X254495299Y-256695860D01*
X254388474Y-256535423D01*
X254269298Y-256384118D01*
X254138537Y-256242664D01*
X253996960Y-256111781D01*
X253845334Y-255992190D01*
X253684427Y-255884610D01*
X253515007Y-255789761D01*
X253370825Y-255722230D01*
X253199197Y-255655835D01*
X253026643Y-255603837D01*
X252851156Y-255565828D01*
X252670726Y-255541401D01*
X252483345Y-255530147D01*
X252420438Y-255529257D01*
X252222343Y-255535627D01*
X252030715Y-255556272D01*
X251844781Y-255591423D01*
X251663765Y-255641317D01*
X251486894Y-255706185D01*
X251313394Y-255786263D01*
X251142491Y-255881785D01*
X251041794Y-255945994D01*
X250902361Y-256047522D01*
X250768163Y-256162028D01*
X250640841Y-256287589D01*
X250522035Y-256422281D01*
X250413386Y-256564181D01*
X250316535Y-256711365D01*
X250233122Y-256861911D01*
X250198326Y-256934830D01*
X250136923Y-257079689D01*
X250086692Y-257218928D01*
X250046435Y-257356876D01*
X250014956Y-257497864D01*
X249991056Y-257646221D01*
X249982655Y-257714750D01*
X249977892Y-257771920D01*
X249974782Y-257840811D01*
X249973294Y-257917358D01*
X249441220Y-257917358D01*
X249442290Y-257829723D01*
X249448164Y-257698856D01*
X249458738Y-257576775D01*
X249474585Y-257460135D01*
X249496277Y-257345594D01*
X249524387Y-257229809D01*
X249559486Y-257109437D01*
X249602147Y-256981134D01*
X249617841Y-256936875D01*
X249696226Y-256742156D01*
X249789066Y-256553822D01*
X249896172Y-256372135D01*
X250017352Y-256197358D01*
X250152417Y-256029753D01*
X250301174Y-255869583D01*
X250463433Y-255717110D01*
X250570271Y-255626929D01*
X250656100Y-255561436D01*
X250753639Y-255494110D01*
X250859248Y-255427162D01*
X250969286Y-255362805D01*
X251080113Y-255303250D01*
X251188089Y-255250708D01*
X251194094Y-255247965D01*
X251264054Y-255218092D01*
X251345235Y-255186706D01*
X251433267Y-255155286D01*
X251523779Y-255125312D01*
X251612401Y-255098261D01*
X251694764Y-255075614D01*
X251726650Y-255067721D01*
X251819875Y-255046953D01*
X251908849Y-255030293D01*
X251996853Y-255017402D01*
X252087169Y-255007945D01*
X252183078Y-255001582D01*
X252287860Y-254997978D01*
X252404795Y-254996794D01*
X252416469Y-254996795D01*
D12*
X124993750Y-231719700D02*
X128793750Y-231719700D01*
X128793750Y-231719700D02*
G75*
G03X131444700Y-229068750I0J2650950D01*
G01*
X131444700Y-229068750D02*
G75*
G03X128793750Y-226417800I-2650950J0D01*
G01*
X124993750Y-226417800D02*
X128793750Y-226417800D01*
X406193750Y-231719700D02*
X410043750Y-231719700D01*
X406193750Y-231719700D02*
G75*
G02X403542800Y-229068750I0J2650950D01*
G01*
X403542800Y-229068750D02*
G75*
G02X406193750Y-226417800I2650950J0D01*
G01*
X406193750Y-226417800D02*
X409993750Y-226417800D01*
D13*
X271938750Y-257968750D03*
X282098750Y-257968750D03*
D14*
X280828750Y-260508750D03*
D15*
X277018750Y-257968750D03*
D14*
X274478750Y-263048750D03*
D13*
X386873750Y-181768750D03*
X376713750Y-181768750D03*
D14*
X377983750Y-179228750D03*
D15*
X381793750Y-181768750D03*
D14*
X384333750Y-176688750D03*
D13*
X367823750Y-181768750D03*
X357663750Y-181768750D03*
D14*
X358933750Y-179228750D03*
D15*
X362743750Y-181768750D03*
D14*
X365283750Y-176688750D03*
D13*
X146367500Y-219868750D03*
X136207500Y-219868750D03*
D14*
X137477500Y-217328750D03*
D15*
X141287500Y-219868750D03*
D14*
X143827500Y-214788750D03*
D16*
X146082500Y-177217400D03*
X140302500Y-177217400D03*
D17*
X138872500Y-177747400D03*
X147512500Y-177747400D03*
D18*
X138872500Y-173567400D03*
X147512500Y-173567400D03*
D14*
X401002500Y-206533750D03*
X403542500Y-212883750D03*
D15*
X398462500Y-210343750D03*
D13*
X398462500Y-205263750D03*
X398462500Y-215423750D03*
D19*
X391477500Y-222281750D03*
X391477500Y-198405750D03*
D15*
X406717500Y-222281750D03*
X406717500Y-198405750D03*
D13*
X382111250Y-219868750D03*
X371951250Y-219868750D03*
D14*
X373221250Y-217328750D03*
D15*
X377031250Y-219868750D03*
D14*
X379571250Y-214788750D03*
D13*
X341630000Y-257968750D03*
X331470000Y-257968750D03*
D14*
X332740000Y-255428750D03*
D15*
X336550000Y-257968750D03*
D14*
X339090000Y-252888750D03*
D13*
X398780000Y-238918750D03*
X388620000Y-238918750D03*
D14*
X389890000Y-236378750D03*
D15*
X393700000Y-238918750D03*
D14*
X396240000Y-233838750D03*
D13*
X372586250Y-238918750D03*
X362426250Y-238918750D03*
D14*
X363696250Y-236378750D03*
D15*
X367506250Y-238918750D03*
D14*
X370046250Y-233838750D03*
X263683750Y-255428750D03*
X270033750Y-252888750D03*
D15*
X315118750Y-249713750D03*
X219868750Y-249713750D03*
D19*
X315118750Y-264953750D03*
X219868750Y-264953750D03*
D13*
X272573750Y-257968750D03*
X262413750Y-257968750D03*
D15*
X267493750Y-257968750D03*
D13*
X403542500Y-257968750D03*
X393382500Y-257968750D03*
D14*
X394652500Y-255428750D03*
D15*
X398462500Y-257968750D03*
D14*
X401002500Y-252888750D03*
D13*
X363061250Y-257968750D03*
X352901250Y-257968750D03*
D14*
X354171250Y-255428750D03*
D15*
X357981250Y-257968750D03*
D14*
X360521250Y-252888750D03*
D13*
X203517500Y-257968750D03*
X193357500Y-257968750D03*
D14*
X194627500Y-255428750D03*
D15*
X198437500Y-257968750D03*
D14*
X200977500Y-252888750D03*
D13*
X141605000Y-257968750D03*
X131445000Y-257968750D03*
D14*
X132715000Y-255428750D03*
D15*
X136525000Y-257968750D03*
D14*
X139065000Y-252888750D03*
D13*
X182086250Y-257968750D03*
X171926250Y-257968750D03*
D14*
X173196250Y-255428750D03*
D15*
X177006250Y-257968750D03*
D14*
X179546250Y-252888750D03*
D13*
X182086250Y-238918750D03*
X171926250Y-238918750D03*
D14*
X173196250Y-236378750D03*
D15*
X177006250Y-238918750D03*
D14*
X179546250Y-233838750D03*
D13*
X263048750Y-200818750D03*
X252888750Y-200818750D03*
D14*
X254158750Y-198278750D03*
D15*
X257968750Y-200818750D03*
D14*
X260508750Y-195738750D03*
D13*
X201136250Y-238918750D03*
X190976250Y-238918750D03*
D14*
X192246250Y-236378750D03*
D15*
X196056250Y-238918750D03*
D14*
X198596250Y-233838750D03*
D13*
X186848750Y-200818750D03*
X176688750Y-200818750D03*
D14*
X177958750Y-198278750D03*
D15*
X181768750Y-200818750D03*
D14*
X184308750Y-195738750D03*
D13*
X239236250Y-238918750D03*
X229076250Y-238918750D03*
D14*
X230346250Y-236378750D03*
D15*
X234156250Y-238918750D03*
D14*
X236696250Y-233838750D03*
D13*
X282098750Y-200818750D03*
X271938750Y-200818750D03*
D14*
X273208750Y-198278750D03*
D15*
X277018750Y-200818750D03*
D14*
X279558750Y-195738750D03*
X141446250Y-195738750D03*
D15*
X138906250Y-200818750D03*
D14*
X135096250Y-198278750D03*
D13*
X133826250Y-200818750D03*
X143986250Y-200818750D03*
X243998750Y-200818750D03*
X233838750Y-200818750D03*
D14*
X235108750Y-198278750D03*
D15*
X238918750Y-200818750D03*
D14*
X241458750Y-195738750D03*
D13*
X405923750Y-181768750D03*
X395763750Y-181768750D03*
D14*
X397033750Y-179228750D03*
D15*
X400843750Y-181768750D03*
D14*
X403383750Y-176688750D03*
D13*
X191611250Y-219868750D03*
X181451250Y-219868750D03*
D14*
X182721250Y-217328750D03*
D15*
X186531250Y-219868750D03*
D14*
X189071250Y-214788750D03*
D13*
X382111250Y-257968750D03*
X371951250Y-257968750D03*
D14*
X373221250Y-255428750D03*
D15*
X377031250Y-257968750D03*
D14*
X379571250Y-252888750D03*
D13*
X224948750Y-200818750D03*
X214788750Y-200818750D03*
D14*
X216058750Y-198278750D03*
D15*
X219868750Y-200818750D03*
D14*
X222408750Y-195738750D03*
D13*
X167798750Y-200818750D03*
X157638750Y-200818750D03*
D14*
X158908750Y-198278750D03*
D15*
X162718750Y-200818750D03*
D14*
X165258750Y-195738750D03*
D13*
X339248750Y-200818750D03*
X329088750Y-200818750D03*
D14*
X330358750Y-198278750D03*
D15*
X334168750Y-200818750D03*
D14*
X336708750Y-195738750D03*
D13*
X320198750Y-200818750D03*
X310038750Y-200818750D03*
D14*
X311308750Y-198278750D03*
D15*
X315118750Y-200818750D03*
D14*
X317658750Y-195738750D03*
D13*
X277336250Y-238918750D03*
X267176250Y-238918750D03*
D14*
X268446250Y-236378750D03*
D15*
X272256250Y-238918750D03*
D14*
X274796250Y-233838750D03*
D13*
X296386250Y-238918750D03*
X286226250Y-238918750D03*
D14*
X287496250Y-236378750D03*
D15*
X291306250Y-238918750D03*
D14*
X293846250Y-233838750D03*
D15*
X134112000Y-247173750D03*
X157988000Y-247173750D03*
D19*
X134112000Y-231933750D03*
X157988000Y-231933750D03*
D13*
X151130000Y-238918750D03*
X140970000Y-238918750D03*
D14*
X142240000Y-236378750D03*
D15*
X146050000Y-238918750D03*
D14*
X148590000Y-233838750D03*
D13*
X163036250Y-257968750D03*
X152876250Y-257968750D03*
D14*
X154146250Y-255428750D03*
D15*
X157956250Y-257968750D03*
D14*
X160496250Y-252888750D03*
D13*
X324961250Y-219868750D03*
X314801250Y-219868750D03*
D14*
X316071250Y-217328750D03*
D15*
X319881250Y-219868750D03*
D14*
X322421250Y-214788750D03*
D13*
X305911250Y-219868750D03*
X295751250Y-219868750D03*
D14*
X297021250Y-217328750D03*
D15*
X300831250Y-219868750D03*
D14*
X303371250Y-214788750D03*
D13*
X286861250Y-219868750D03*
X276701250Y-219868750D03*
D14*
X277971250Y-217328750D03*
D15*
X281781250Y-219868750D03*
D14*
X284321250Y-214788750D03*
D13*
X301148750Y-200818750D03*
X290988750Y-200818750D03*
D14*
X292258750Y-198278750D03*
D15*
X296068750Y-200818750D03*
D14*
X298608750Y-195738750D03*
D13*
X262731250Y-224948750D03*
X262731250Y-214788750D03*
D14*
X265271250Y-216058750D03*
D15*
X262731250Y-219868750D03*
D14*
X267811250Y-222408750D03*
D13*
X248761250Y-219868750D03*
X238601250Y-219868750D03*
D14*
X239871250Y-217328750D03*
D15*
X243681250Y-219868750D03*
D14*
X246221250Y-214788750D03*
D13*
X229711250Y-219868750D03*
X219551250Y-219868750D03*
D14*
X220821250Y-217328750D03*
D15*
X224631250Y-219868750D03*
D14*
X227171250Y-214788750D03*
D13*
X129063750Y-181768750D03*
X139223750Y-181768750D03*
D14*
X137953750Y-184308750D03*
D15*
X134143750Y-181768750D03*
D14*
X131603750Y-186848750D03*
D13*
X205898750Y-200818750D03*
X195738750Y-200818750D03*
D14*
X197008750Y-198278750D03*
D15*
X200818750Y-200818750D03*
D14*
X203358750Y-195738750D03*
D13*
X210661250Y-219868750D03*
X200501250Y-219868750D03*
D14*
X201771250Y-217328750D03*
D15*
X205581250Y-219868750D03*
D14*
X208121250Y-214788750D03*
D13*
X220186250Y-238918750D03*
X210026250Y-238918750D03*
D14*
X211296250Y-236378750D03*
D15*
X215106250Y-238918750D03*
D14*
X217646250Y-233838750D03*
D13*
X258286250Y-238918750D03*
X248126250Y-238918750D03*
D14*
X249396250Y-236378750D03*
D15*
X253206250Y-238918750D03*
D14*
X255746250Y-233838750D03*
D13*
X172561250Y-219868750D03*
X162401250Y-219868750D03*
D14*
X163671250Y-217328750D03*
D15*
X167481250Y-219868750D03*
D14*
X170021250Y-214788750D03*
D13*
X377348750Y-200818750D03*
X367188750Y-200818750D03*
D14*
X368458750Y-198278750D03*
D15*
X372268750Y-200818750D03*
D14*
X374808750Y-195738750D03*
D13*
X358298750Y-200818750D03*
X348138750Y-200818750D03*
D14*
X349408750Y-198278750D03*
D15*
X353218750Y-200818750D03*
D14*
X355758750Y-195738750D03*
D13*
X344011250Y-219868750D03*
X333851250Y-219868750D03*
D14*
X335121250Y-217328750D03*
D15*
X338931250Y-219868750D03*
D14*
X341471250Y-214788750D03*
D13*
X353536250Y-238918750D03*
X343376250Y-238918750D03*
D14*
X344646250Y-236378750D03*
D15*
X348456250Y-238918750D03*
D14*
X350996250Y-233838750D03*
D13*
X348773750Y-181768750D03*
X338613750Y-181768750D03*
D14*
X339883750Y-179228750D03*
D15*
X343693750Y-181768750D03*
D14*
X346233750Y-176688750D03*
D13*
X363061250Y-219868750D03*
X352901250Y-219868750D03*
D14*
X354171250Y-217328750D03*
D15*
X357981250Y-219868750D03*
D14*
X360521250Y-214788750D03*
D13*
X329723750Y-181768750D03*
X319563750Y-181768750D03*
D14*
X320833750Y-179228750D03*
D15*
X324643750Y-181768750D03*
D14*
X327183750Y-176688750D03*
D13*
X310673750Y-181768750D03*
X300513750Y-181768750D03*
D14*
X301783750Y-179228750D03*
D15*
X305593750Y-181768750D03*
D14*
X308133750Y-176688750D03*
D13*
X291623750Y-181768750D03*
X281463750Y-181768750D03*
D14*
X282733750Y-179228750D03*
D15*
X286543750Y-181768750D03*
D14*
X289083750Y-176688750D03*
D13*
X272573750Y-181768750D03*
X262413750Y-181768750D03*
D14*
X263683750Y-179228750D03*
D15*
X267493750Y-181768750D03*
D14*
X270033750Y-176688750D03*
D13*
X253523750Y-181768750D03*
X243363750Y-181768750D03*
D14*
X244633750Y-179228750D03*
D15*
X248443750Y-181768750D03*
D14*
X250983750Y-176688750D03*
D13*
X234473750Y-181768750D03*
X224313750Y-181768750D03*
D14*
X225583750Y-179228750D03*
D15*
X229393750Y-181768750D03*
D14*
X231933750Y-176688750D03*
D13*
X215423750Y-181768750D03*
X205263750Y-181768750D03*
D14*
X206533750Y-179228750D03*
D15*
X210343750Y-181768750D03*
D14*
X212883750Y-176688750D03*
D13*
X196373750Y-181768750D03*
X186213750Y-181768750D03*
D14*
X187483750Y-179228750D03*
D15*
X191293750Y-181768750D03*
D14*
X193833750Y-176688750D03*
D13*
X177323750Y-181768750D03*
X167163750Y-181768750D03*
D14*
X168433750Y-179228750D03*
D15*
X172243750Y-181768750D03*
D14*
X174783750Y-176688750D03*
D13*
X148113750Y-181768750D03*
X158273750Y-181768750D03*
D14*
X157003750Y-184308750D03*
D15*
X153193750Y-181768750D03*
D14*
X150653750Y-186848750D03*
D13*
X315436250Y-238918750D03*
X305276250Y-238918750D03*
D14*
X306546250Y-236378750D03*
D15*
X310356250Y-238918750D03*
D14*
X312896250Y-233838750D03*
D13*
X334486250Y-238918750D03*
X324326250Y-238918750D03*
D14*
X325596250Y-236378750D03*
D15*
X329406250Y-238918750D03*
D14*
X331946250Y-233838750D03*
D20*
X385043750Y-200468750D03*
X253193750Y-219568750D03*
X150193750Y-200468750D03*
M02*
