0
SECTION
2
HEADER
9
$INSUNITS
70
4
9
$ACADVER
1
AC1014
9
$HANDSEED
5
FFFF
0
ENDSEC
0
SECTION
2
TABLES
0
TABLE
2
VPORT
5
8
100
AcDbSymbolTable
0
ENDTAB
0
TABLE
2
LTYPE
5
5
100
AcDbSymbolTable
0
LTYPE
5
14
100
AcDbSymbolTableRecord
100
AcDbLinetypeTableRecord
2
BYBLOCK
70
0
0
LTYPE
5
15
100
AcDbSymbolTableRecord
100
AcDbLinetypeTableRecord
2
BYLAYER
70
0
0
ENDTAB
0
TABLE
2
LAYER
5
2
100
AcDbSymbolTable
70
2
0
LAYER
5
50
100
AcDbSymbolTableRecord
100
AcDbLayerTableRecord
2
0
70
0
6
CONTINUOUS
0
ENDTAB
0
TABLE
2
STYLE
5
3
100
AcDbSymbolTable
70
1
0
STYLE
5
11
100
AcDbSymbolTableRecord
100
AcDbTextStyleTableRecord
2
STANDARD
70
0
0
ENDTAB
0
TABLE
2
VIEW
5
6
100
AcDbSymbolTable
70
0
0
ENDTAB
0
TABLE
2
UCS
5
7
100
AcDbSymbolTable
70
0
0
ENDTAB
0
TABLE
2
APPID
5
9
100
AcDbSymbolTable
70
2
0
APPID
5
12
100
AcDbSymbolTableRecord
100
AcDbRegAppTableRecord
2
ACAD
70
0
0
ENDTAB
0
TABLE
2
DIMSTYLE
5
A
100
AcDbSymbolTable
70
1
0
ENDTAB
0
TABLE
2
BLOCK_RECORD
5
1
100
AcDbSymbolTable
70
1
0
BLOCK_RECORD
5
1F
100
AcDbSymbolTableRecord
100
AcDbBlockTableRecord
2
*MODEL_SPACE
0
BLOCK_RECORD
5
1B
100
AcDbSymbolTableRecord
100
AcDbBlockTableRecord
2
*PAPER_SPACE
0
ENDTAB
0
ENDSEC
0
SECTION
2
BLOCKS
0
BLOCK
5
20
100
AcDbEntity
100
AcDbBlockBegin
2
*MODEL_SPACE
0
ENDBLK
5
21
100
AcDbEntity
100
AcDbBlockEnd
0
BLOCK
5
1C
100
AcDbEntity
100
AcDbBlockBegin
2
*PAPER_SPACE
0
ENDBLK
5
1D
100
AcDbEntity
100
AcDbBlockEnd
0
ENDSEC
0
SECTION
2
ENTITIES
0
LWPOLYLINE
5
100
100
AcDbEntity
8
0
100
AcDbPolyline
90
8
70
1
43
0.0
10
-26.837499999999999
20
78.724999999999994
42
0.41421356237309503
10
-26.337499999999999
20
79.224999999999994
10
-26.337499999999999
20
92.224999999999994
42
0.41421356237309503
10
-26.837499999999999
20
92.724999999999994
10
-39.837499999999999
20
92.725000000000009
42
0.41421356237309503
10
-40.337500000000006
20
92.224999999999994
10
-40.337500000000006
20
79.224999999999994
42
0.41421356237309503
10
-39.837499999999999
20
78.724999999999994
0
LWPOLYLINE
5
101
100
AcDbEntity
8
0
100
AcDbPolyline
90
8
70
1
43
0.0
10
-236.38750000000002
20
59.675000000000004
42
0.41421356237309503
10
-235.88750000000002
20
60.174999999999997
10
-235.88750000000002
20
73.174999999999997
42
0.41421356237309503
10
-236.38750000000002
20
73.674999999999997
10
-249.38749999999999
20
73.674999999999997
42
0.41421356237309503
10
-249.88749999999999
20
73.174999999999997
10
-249.88749999999999
20
60.174999999999997
42
0.41421356237309503
10
-249.38749999999999
20
59.675000000000004
0
LWPOLYLINE
5
102
100
AcDbEntity
8
0
100
AcDbPolyline
90
8
70
1
43
0.0
10
-5.40625
20
78.724999999999994
42
0.41421356237309503
10
-4.9062500000000018
20
79.224999999999994
10
-4.90625
20
92.224999999999994
42
0.41421356237309437
10
-5.4062499999999991
20
92.724999999999994
10
-18.40625
20
92.725000000000009
42
0.41421356237309503
10
-18.90625
20
92.224999999999994
10
-18.906250000000004
20
79.224999999999994
42
0.41421356237309503
10
-18.40625
20
78.724999999999994
0
LWPOLYLINE
5
103
100
AcDbEntity
8
0
100
AcDbPolyline
90
8
70
1
43
0.0
10
-3.0249999999999999
20
2.5249999999999999
42
0.41421356237309503
10
-2.5249999999999999
20
3.0249999999999999
10
-2.5249999999999999
20
16.024999999999999
42
0.41421356237309503
10
-3.0249999999999999
20
16.524999999999999
10
-16.024999999999999
20
16.525000000000002
42
0.41421356237309503
10
-16.524999999999999
20
16.024999999999999
10
-16.525000000000002
20
3.0249999999999999
42
0.41421356237309503
10
-16.024999999999999
20
2.5249999999999999
0
LWPOLYLINE
5
104
100
AcDbEntity
8
0
100
AcDbPolyline
90
8
70
1
43
0.0
10
-93.512500000000003
20
40.625
42
0.41421356237309503
10
-93.012500000000017
20
41.125
10
-93.012499999999989
20
54.125000000000007
42
0.41421356237309503
10
-93.512500000000003
20
54.625
10
-106.51250000000002
20
54.625
42
0.41421356237309503
10
-107.01250000000002
20
54.125000000000007
10
-107.01250000000002
20
41.125
42
0.41421356237309503
10
-106.51250000000002
20
40.625
0
LWPOLYLINE
5
105
100
AcDbEntity
8
0
100
AcDbPolyline
90
8
70
1
43
0.0
10
-188.76249999999999
20
40.625
42
0.41421356237309503
10
-188.26249999999999
20
41.125
10
-188.26249999999999
20
54.125000000000007
42
0.41421356237309503
10
-188.76249999999999
20
54.625
10
-201.76249999999999
20
54.625
42
0.41421356237309503
10
-202.26249999999999
20
54.125000000000007
10
-202.26249999999999
20
41.125
42
0.41421356237309503
10
-201.76249999999999
20
40.625
0
LWPOLYLINE
5
106
100
AcDbEntity
8
0
100
AcDbPolyline
90
8
70
1
43
0.0
10
-276.08125000000007
20
60.174999999999997
42
0.41421356237309503
10
-275.58125000000007
20
59.674999999999997
10
-262.58125000000001
20
59.675000000000004
42
0.41421356237309503
10
-262.08125000000001
20
60.174999999999997
10
-262.08125000000001
20
73.174999999999997
42
0.41421356237309503
10
-262.58125000000001
20
73.674999999999997
10
-275.58125000000007
20
73.674999999999997
42
0.41421356237309503
10
-276.08125000000001
20
73.174999999999997
0
LWPOLYLINE
5
107
100
AcDbEntity
8
0
100
AcDbPolyline
90
8
70
1
43
0.0
10
-45.887500000000003
20
59.675000000000004
42
0.41421356237309503
10
-45.387500000000003
20
60.174999999999997
10
-45.387500000000003
20
73.174999999999997
42
0.41421356237309503
10
-45.887500000000003
20
73.674999999999997
10
-58.88750000000001
20
73.674999999999997
42
0.41421356237309503
10
-59.387500000000003
20
73.174999999999997
10
-59.387500000000003
20
60.174999999999997
42
0.41421356237309503
10
-58.88750000000001
20
59.675000000000004
0
LWPOLYLINE
5
108
100
AcDbEntity
8
0
100
AcDbPolyline
90
8
70
1
43
0.0
10
-207.8125
20
40.625
42
0.41421356237309503
10
-207.3125
20
41.125
10
-207.3125
20
54.125000000000007
42
0.41421356237309503
10
-207.8125
20
54.625
10
-220.8125
20
54.625
42
0.41421356237309503
10
-221.3125
20
54.125000000000007
10
-221.3125
20
41.125
42
0.41421356237309503
10
-220.8125
20
40.625
0
LWPOLYLINE
5
109
100
AcDbEntity
8
0
100
AcDbPolyline
90
8
70
1
43
0.0
10
-267.34375
20
78.724999999999994
42
0.41421356237309503
10
-266.84375
20
79.224999999999994
10
-266.84375
20
92.224999999999994
42
0.41421356237309503
10
-267.34375
20
92.724999999999994
10
-280.34375
20
92.725000000000009
42
0.41421356237309503
10
-280.84375
20
92.224999999999994
10
-280.84375
20
79.224999999999994
42
0.41421356237309503
10
-280.34375
20
78.724999999999994
0
LWPOLYLINE
5
110
100
AcDbEntity
8
0
100
AcDbPolyline
90
8
70
1
43
0.0
10
-30.369250000000001
20
60.674999999999997
42
0.41421356237309503
10
-29.869250000000001
20
61.174999999999997
10
-29.869250000000001
20
75.174999999999997
42
0.41421356237309503
10
-30.369250000000001
20
75.674999999999997
10
-36.369250000000001
20
75.674999999999997
42
0.41421356237309503
10
-36.869250000000008
20
75.174999999999997
10
-36.869250000000001
20
61.174999999999997
42
0.41421356237309503
10
-36.369250000000001
20
60.674999999999997
0
LWPOLYLINE
5
111
100
AcDbEntity
8
0
100
AcDbPolyline
90
8
70
1
43
0.0
10
-60.174999999999997
20
2.5249999999999999
42
0.41421356237309503
10
-59.675000000000004
20
3.0249999999999999
10
-59.675000000000004
20
16.024999999999999
42
0.41421356237309503
10
-60.174999999999997
20
16.524999999999999
10
-73.174999999999997
20
16.525000000000002
42
0.41421356237309503
10
-73.674999999999997
20
16.024999999999999
10
-73.674999999999997
20
3.0249999999999999
42
0.41421356237309503
10
-73.174999999999997
20
2.5249999999999999
0
LWPOLYLINE
5
112
100
AcDbEntity
8
0
100
AcDbPolyline
90
8
70
1
43
0.0
10
-136.375
20
2.5249999999999999
42
0.41421356237309503
10
-135.875
20
3.0249999999999999
10
-135.875
20
16.024999999999999
42
0.41421356237309503
10
-136.375
20
16.524999999999999
10
-149.375
20
16.525000000000002
42
0.41421356237309503
10
-149.875
20
16.024999999999999
10
-149.875
20
3.0249999999999999
42
0.41421356237309503
10
-149.375
20
2.5249999999999901
0
LWPOLYLINE
5
113
100
AcDbEntity
8
0
100
AcDbPolyline
90
8
70
1
43
0.0
10
-245.91250000000002
20
78.724999999999994
42
0.41421356237309503
10
-245.41250000000002
20
79.224999999999994
10
-245.41250000000002
20
92.224999999999994
42
0.41421356237309503
10
-245.91250000000002
20
92.724999999999994
10
-258.91250000000002
20
92.725000000000009
42
0.41421356237309503
10
-259.41250000000002
20
92.224999999999994
10
-259.41250000000002
20
79.224999999999994
42
0.41421356237309503
10
-258.91250000000002
20
78.724999999999994
0
LWPOLYLINE
5
114
100
AcDbEntity
8
0
100
AcDbPolyline
90
8
70
1
43
0.0
10
-122.08750000000002
20
59.675000000000004
42
0.41421356237309503
10
-121.58750000000003
20
60.174999999999997
10
-121.58750000000001
20
73.174999999999997
42
0.41421356237309503
10
-122.08750000000002
20
73.674999999999997
10
-135.08750000000001
20
73.674999999999997
42
0.41421356237309503
10
-135.58750000000001
20
73.174999999999997
10
-135.58750000000001
20
60.174999999999997
42
0.41421356237309503
10
-135.08750000000001
20
59.675000000000004
0
LWPOLYLINE
5
115
100
AcDbEntity
8
0
100
AcDbPolyline
90
8
70
1
43
0.0
10
-67.318749999999994
20
78.724999999999994
42
0.41421356237309503
10
-66.818749999999994
20
79.224999999999994
10
-66.818749999999994
20
92.224999999999994
42
0.41421356237309503
10
-67.318749999999994
20
92.724999999999994
10
-80.318749999999994
20
92.725000000000009
42
0.41421356237309503
10
-80.818749999999994
20
92.224999999999994
10
-80.818749999999994
20
79.224999999999994
42
0.41421356237309503
10
-80.318749999999994
20
78.724999999999994
0
LWPOLYLINE
5
116
100
AcDbEntity
8
0
100
AcDbPolyline
90
8
70
1
43
0.0
10
-218.93125000000001
20
79.224999999999994
42
0.41421356237309503
10
-218.43125000000001
20
78.724999999999994
10
-205.43125000000003
20
78.724999999999994
42
0.41421356237309503
10
-204.93125000000003
20
79.224999999999994
10
-204.93125000000003
20
92.224999999999994
42
0.41421356237309503
10
-205.43125000000003
20
92.724999999999994
10
-218.43125000000001
20
92.725000000000009
42
0.41421356237309503
10
-218.93125000000001
20
92.224999999999994
0
LWPOLYLINE
5
117
100
AcDbEntity
8
0
100
AcDbPolyline
90
8
70
1
43
0.0
10
-240.36250000000001
20
79.224999999999994
42
0.41421356237309503
10
-239.86250000000001
20
78.724999999999994
10
-226.86250000000001
20
78.724999999999994
42
0.41421356237309503
10
-226.36250000000004
20
79.224999999999994
10
-226.36250000000001
20
92.224999999999994
42
0.41421356237309503
10
-226.86250000000001
20
92.724999999999994
10
-239.86250000000001
20
92.725000000000009
42
0.41421356237309503
10
-240.36250000000001
20
92.224999999999994
0
LWPOLYLINE
5
118
100
AcDbEntity
8
0
100
AcDbPolyline
90
8
70
1
43
0.0
10
-160.1875
20
59.675000000000004
42
0.41421356237309503
10
-159.68750000000003
20
60.174999999999997
10
-159.6875
20
73.174999999999997
42
0.41421356237309503
10
-160.1875
20
73.674999999999997
10
-173.1875
20
73.674999999999997
42
0.41421356237309503
10
-173.68750000000003
20
73.174999999999997
10
-173.68750000000003
20
60.174999999999997
42
0.41421356237309503
10
-173.1875
20
59.675000000000004
0
LWPOLYLINE
5
119
100
AcDbEntity
8
0
100
AcDbPolyline
90
8
70
1
43
0.0
10
-217.33750000000001
20
59.675000000000004
42
0.41421356237309503
10
-216.83750000000001
20
60.174999999999997
10
-216.83750000000001
20
73.174999999999997
42
0.41421356237309503
10
-217.33750000000001
20
73.674999999999997
10
-230.33750000000001
20
73.674999999999997
42
0.41421356237309503
10
-230.83750000000003
20
73.174999999999997
10
-230.83750000000003
20
60.174999999999997
42
0.41421356237309503
10
-230.33750000000001
20
59.675000000000004
0
LWPOLYLINE
5
120
100
AcDbEntity
8
0
100
AcDbPolyline
90
8
70
1
43
0.0
10
-59.387500000000003
20
79.224999999999994
42
0.41421356237309503
10
-58.88750000000001
20
78.724999999999994
10
-45.887500000000003
20
78.724999999999994
42
0.41421356237309503
10
-45.387500000000003
20
79.224999999999994
10
-45.387500000000003
20
92.224999999999994
42
0.41421356237309503
10
-45.887500000000003
20
92.724999999999994
10
-58.88750000000001
20
92.725000000000009
42
0.41421356237309503
10
-59.387500000000003
20
92.224999999999994
0
LWPOLYLINE
5
121
100
AcDbEntity
8
0
100
AcDbPolyline
90
8
70
1
43
0.0
10
-198.28749999999999
20
59.675000000000004
42
0.41421356237309503
10
-197.78749999999999
20
60.174999999999997
10
-197.78749999999999
20
73.174999999999997
42
0.41421356237309503
10
-198.28749999999999
20
73.674999999999997
10
-211.28749999999999
20
73.674999999999997
42
0.41421356237309503
10
-211.78750000000002
20
73.174999999999997
10
-211.78750000000002
20
60.174999999999997
42
0.41421356237309503
10
-211.28749999999999
20
59.675000000000004
0
LWPOLYLINE
5
122
100
AcDbEntity
8
0
100
AcDbPolyline
90
8
70
1
43
0.0
10
-179.23750000000001
20
59.675000000000004
42
0.41421356237309503
10
-178.73750000000001
20
60.174999999999997
10
-178.73750000000001
20
73.174999999999997
42
0.41421356237309503
10
-179.23750000000001
20
73.674999999999997
10
-192.23750000000001
20
73.674999999999997
42
0.41421356237309503
10
-192.73750000000004
20
73.174999999999997
10
-192.73750000000004
20
60.174999999999997
42
0.41421356237309503
10
-192.23750000000001
20
59.675000000000004
0
LWPOLYLINE
5
123
100
AcDbEntity
8
0
100
AcDbPolyline
90
8
70
1
43
0.0
10
-83.987499999999997
20
59.675000000000004
42
0.41421356237309503
10
-83.487500000000011
20
60.174999999999997
10
-83.487499999999983
20
73.174999999999997
42
0.41421356237309503
10
-83.987499999999997
20
73.674999999999997
10
-96.987500000000011
20
73.674999999999997
42
0.41421356237309503
10
-97.487500000000011
20
73.174999999999997
10
-97.487500000000011
20
60.174999999999997
42
0.41421356237309503
10
-96.987500000000011
20
59.675000000000004
0
LWPOLYLINE
5
124
100
AcDbEntity
8
0
100
AcDbPolyline
90
8
70
1
43
0.0
10
-141.13749999999999
20
59.675000000000004
42
0.41421356237309503
10
-140.63750000000002
20
60.174999999999997
10
-140.63749999999999
20
73.174999999999997
42
0.41421356237309503
10
-141.13749999999999
20
73.674999999999997
10
-154.13749999999999
20
73.674999999999997
42
0.41421356237309503
10
-154.63749999999999
20
73.174999999999997
10
-154.63750000000002
20
60.174999999999997
42
0.41421356237309503
10
-154.13749999999999
20
59.675000000000004
0
LWPOLYLINE
5
125
100
AcDbEntity
8
0
100
AcDbPolyline
90
8
70
1
43
0.0
10
-269.22500000000002
20
16.024999999999999
10
-269.22500000000002
20
3.0249999999999999
42
-0.41421356237309503
10
-269.72500000000002
20
2.5249999999999999
10
-282.72500000000002
20
2.5249999999999928
42
-0.41421356237309503
10
-283.22500000000002
20
3.0249999999999999
10
-283.22500000000002
20
16.024999999999999
42
-0.41421356237309503
10
-282.72500000000002
20
16.525000000000002
10
-269.72500000000002
20
16.525000000000006
42
-0.41421356237309503
0
LWPOLYLINE
5
126
100
AcDbEntity
8
0
100
AcDbPolyline
90
8
70
1
43
0.0
10
-55.412500000000009
20
40.625
42
0.41421356237309503
10
-54.912500000000009
20
41.125
10
-54.912500000000009
20
54.125000000000007
42
0.41421356237309503
10
-55.412500000000009
20
54.625
10
-68.412499999999994
20
54.625
42
0.41421356237309503
10
-68.912499999999994
20
54.125000000000007
10
-68.912499999999994
20
41.125
42
0.41421356237309503
10
-68.412499999999994
20
40.625
0
LWPOLYLINE
5
127
100
AcDbEntity
8
0
100
AcDbPolyline
90
8
70
1
43
0.0
10
-50.650000000000006
20
21.575000000000003
42
0.41421356237309503
10
-50.150000000000006
20
22.074999999999999
10
-50.150000000000006
20
35.075000000000003
42
0.41421356237309503
10
-50.650000000000006
20
35.575000000000003
10
-63.650000000000006
20
35.575000000000003
42
0.41421356237309503
10
-64.150000000000006
20
35.075000000000003
10
-64.150000000000006
20
22.074999999999999
42
0.41421356237309503
10
-63.650000000000006
20
21.575000000000003
0
LWPOLYLINE
5
128
100
AcDbEntity
8
0
100
AcDbPolyline
90
8
70
1
43
0.0
10
-203.05000000000004
20
21.575000000000003
42
0.41421356237309503
10
-202.55000000000001
20
22.074999999999999
10
-202.55000000000001
20
35.075000000000003
42
0.41421356237309503
10
-203.05000000000004
20
35.575000000000003
10
-216.05000000000004
20
35.575000000000003
42
0.41421356237309503
10
-216.55000000000001
20
35.075000000000003
10
-216.55000000000004
20
22.074999999999999
42
0.41421356237309503
10
-216.05000000000004
20
21.575000000000003
0
LWPOLYLINE
5
129
100
AcDbEntity
8
0
100
AcDbPolyline
90
8
70
1
43
0.0
10
-69.700000000000003
20
21.575000000000003
42
0.41421356237309503
10
-69.200000000000003
20
22.074999999999999
10
-69.200000000000003
20
35.075000000000003
42
0.41421356237309503
10
-69.700000000000003
20
35.575000000000003
10
-82.700000000000017
20
35.575000000000003
42
0.41421356237309503
10
-83.200000000000003
20
35.075000000000003
10
-83.200000000000017
20
22.074999999999999
42
0.41421356237309503
10
-82.700000000000017
20
21.575000000000003
0
LWPOLYLINE
5
130
100
AcDbEntity
8
0
100
AcDbPolyline
90
8
70
1
43
0.0
10
-164.95000000000002
20
21.575000000000003
42
0.41421356237309503
10
-164.44999999999999
20
22.074999999999999
10
-164.44999999999999
20
35.075000000000003
42
0.41421356237309503
10
-164.95000000000002
20
35.575000000000003
10
-177.94999999999999
20
35.575000000000003
42
0.41421356237309503
10
-178.44999999999999
20
35.075000000000003
10
-178.44999999999999
20
22.074999999999999
42
0.41421356237309503
10
-177.94999999999999
20
21.575000000000003
0
LWPOLYLINE
5
131
100
AcDbEntity
8
0
100
AcDbPolyline
90
8
70
1
43
0.0
10
-7.7875000000000005
20
21.575000000000003
42
0.41421356237309503
10
-7.2875000000000023
20
22.074999999999999
10
-7.2874999999999996
20
35.075000000000003
42
0.41421356237309503
10
-7.7875000000000005
20
35.575000000000003
10
-20.787500000000001
20
35.575000000000003
42
0.41421356237309503
10
-21.287500000000001
20
35.075000000000003
10
-21.287500000000001
20
22.074999999999999
42
0.41421356237309503
10
-20.787500000000001
20
21.575000000000003
0
LWPOLYLINE
5
132
100
AcDbEntity
8
0
100
AcDbPolyline
90
8
70
1
43
0.0
10
-6.4932500000000006
20
60.674999999999997
42
0.41421356237309503
10
-5.9932500000000024
20
61.174999999999997
10
-5.9932499999999997
20
75.174999999999997
42
0.41421356237309503
10
-6.4932500000000006
20
75.674999999999997
10
-12.49325
20
75.674999999999997
42
0.41421356237309503
10
-12.99325
20
75.174999999999997
10
-12.99325
20
61.174999999999997
42
0.41421356237309503
10
-12.49325
20
60.674999999999997
0
LWPOLYLINE
5
133
100
AcDbEntity
8
0
100
AcDbPolyline
90
8
70
1
43
0.0
10
-36.362499999999997
20
40.625
42
0.41421356237309503
10
-35.862500000000004
20
41.125
10
-35.862500000000004
20
54.125000000000007
42
0.41421356237309503
10
-36.362499999999997
20
54.625
10
-49.362500000000004
20
54.625
42
0.41421356237309503
10
-49.862499999999997
20
54.125000000000007
10
-49.862499999999997
20
41.125
42
0.41421356237309503
10
-49.362500000000004
20
40.625
0
LWPOLYLINE
5
134
100
AcDbEntity
8
0
100
AcDbPolyline
90
8
70
1
43
0.0
10
-245.91250000000002
20
40.625
42
0.41421356237309503
10
-245.41250000000002
20
41.125
10
-245.41250000000002
20
54.125000000000007
42
0.41421356237309503
10
-245.91250000000002
20
54.625
10
-258.91250000000002
20
54.625
42
0.41421356237309503
10
-259.41250000000002
20
54.125000000000007
10
-259.41250000000002
20
41.125
42
0.41421356237309503
10
-258.91250000000002
20
40.625
0
LWPOLYLINE
5
135
100
AcDbEntity
8
0
100
AcDbPolyline
90
8
70
1
43
0.0
10
-150.66249999999999
20
40.625
42
0.41421356237309503
10
-150.16250000000002
20
41.125
10
-150.16249999999999
20
54.125000000000007
42
0.41421356237309503
10
-150.66249999999999
20
54.625
10
-163.66250000000002
20
54.625
42
0.41421356237309503
10
-164.16250000000002
20
54.125000000000007
10
-164.16250000000002
20
41.125
42
0.41421356237309503
10
-163.66250000000002
20
40.625
0
LWPOLYLINE
5
136
100
AcDbEntity
8
0
100
AcDbPolyline
90
8
70
1
43
0.0
10
-240.36250000000001
20
41.125
42
0.41421356237309503
10
-239.86250000000001
20
40.624999999999993
10
-226.86250000000001
20
40.625
42
0.41421356237309503
10
-226.36250000000004
20
41.125
10
-226.36250000000001
20
54.125000000000007
42
0.41421356237309503
10
-226.86250000000001
20
54.625
10
-239.86250000000001
20
54.625
42
0.41421356237309503
10
-240.36250000000001
20
54.125000000000007
0
LWPOLYLINE
5
137
100
AcDbEntity
8
0
100
AcDbPolyline
90
8
70
1
43
0.0
10
-126.34999999999999
20
35.075000000000003
10
-126.35000000000002
20
22.074999999999999
42
-0.41421356237309503
10
-126.85000000000001
20
21.575000000000003
10
-139.84999999999999
20
21.574999999999992
42
-0.41421356237309503
10
-140.34999999999999
20
22.074999999999999
10
-140.34999999999999
20
35.075000000000003
42
-0.41421356237309503
10
-139.84999999999999
20
35.575000000000003
10
-126.85000000000001
20
35.57500000000001
42
-0.41421356237309503
0
LWPOLYLINE
5
138
100
AcDbEntity
8
0
100
AcDbPolyline
90
8
70
1
43
0.0
10
-14.93125
20
59.675000000000004
42
0.41421356237309503
10
-14.431250000000002
20
60.174999999999997
10
-14.43125
20
73.174999999999997
42
0.41421356237309503
10
-14.93125
20
73.674999999999997
10
-27.931249999999999
20
73.674999999999997
42
0.41421356237309503
10
-28.431250000000002
20
73.174999999999997
10
-28.431249999999999
20
60.174999999999997
42
0.41421356237309503
10
-27.931249999999999
20
59.675000000000004
0
LWPOLYLINE
5
139
100
AcDbEntity
8
0
100
AcDbPolyline
90
8
70
1
43
0.0
10
-10.168749999999999
20
40.625
42
0.41421356237309503
10
-9.6687500000000011
20
41.125
10
-9.6687499999999993
20
54.125000000000007
42
0.41421356237309503
10
-10.168749999999999
20
54.625
10
-23.168749999999999
20
54.625
42
0.41421356237309503
10
-23.668749999999999
20
54.125000000000007
10
-23.668749999999999
20
41.125
42
0.41421356237309503
10
-23.168749999999999
20
40.625
0
LWPOLYLINE
5
140
100
AcDbEntity
8
0
100
AcDbPolyline
90
8
70
1
43
0.0
10
-31.600000000000001
20
21.575000000000003
42
0.41421356237309503
10
-31.100000000000001
20
22.074999999999999
10
-31.100000000000001
20
35.075000000000003
42
0.41421356237309503
10
-31.600000000000001
20
35.575000000000003
10
-44.600000000000001
20
35.575000000000003
42
0.41421356237309503
10
-45.100000000000009
20
35.075000000000003
10
-45.099999999999994
20
22.074999999999999
42
0.41421356237309503
10
-44.600000000000001
20
21.575000000000003
0
LWPOLYLINE
5
141
100
AcDbEntity
8
0
100
AcDbPolyline
90
8
70
1
43
0.0
10
-183.21250000000003
20
41.125
42
0.41421356237309503
10
-182.71250000000003
20
40.624999999999993
10
-169.71250000000001
20
40.625
42
0.41421356237309503
10
-169.21250000000001
20
41.125
10
-169.21250000000001
20
54.125000000000007
42
0.41421356237309503
10
-169.71250000000001
20
54.625
10
-182.71250000000003
20
54.625
42
0.41421356237309503
10
-183.21250000000003
20
54.125000000000007
0
LWPOLYLINE
5
142
100
AcDbEntity
8
0
100
AcDbPolyline
90
8
70
1
43
0.0
10
-88.75
20
21.575000000000003
42
0.41421356237309503
10
-88.250000000000014
20
22.074999999999999
10
-88.25
20
35.075000000000003
42
0.41421356237309503
10
-88.75
20
35.575000000000003
10
-101.75
20
35.575000000000003
42
0.41421356237309503
10
-102.25000000000001
20
35.075000000000003
10
-102.25000000000001
20
22.074999999999999
42
0.41421356237309503
10
-101.75
20
21.575000000000003
0
LWPOLYLINE
5
143
100
AcDbEntity
8
0
100
AcDbPolyline
90
8
70
1
43
0.0
10
-73.962500000000006
20
54.125000000000007
10
-73.962500000000006
20
41.125
42
-0.41421356237309503
10
-74.462500000000006
20
40.625
10
-87.46250000000002
20
40.624999999999993
42
-0.41421356237309503
10
-87.96250000000002
20
41.125
10
-87.962500000000006
20
54.125000000000007
42
-0.41421356237309503
10
-87.46250000000002
20
54.625
10
-74.462500000000006
20
54.625
42
-0.41421356237309503
0
LWPOLYLINE
5
144
100
AcDbEntity
8
0
100
AcDbPolyline
90
8
70
1
43
0.0
10
-267.34375
20
31.100000000000001
10
-280.34375
20
31.099999999999994
42
-0.41421356237309503
10
-280.84375
20
31.600000000000001
10
-280.84375
20
44.600000000000001
42
-0.41421356237309503
10
-280.34375
20
45.099999999999994
10
-267.34375
20
45.100000000000009
42
-0.41421356237309503
10
-266.84375
20
44.600000000000001
10
-266.84375
20
31.600000000000001
42
-0.41421356237309503
0
LWPOLYLINE
5
145
100
AcDbEntity
8
0
100
AcDbPolyline
90
8
70
1
43
0.0
10
-268.34375
20
22.661999999999985
10
-282.34375
20
22.661999999999992
42
-0.41421356237309503
10
-282.84375
20
23.161999999999999
10
-282.84375
20
29.162000000000003
42
-0.41421356237309503
10
-282.34375
20
29.662000000000003
10
-268.34375
20
29.66200000000001
42
-0.41421356237309503
10
-267.84375
20
29.162000000000003
10
-267.84375
20
23.161999999999999
42
-0.41421356237309503
0
LWPOLYLINE
5
146
100
AcDbEntity
8
0
100
AcDbPolyline
90
8
70
1
43
0.0
10
-184.00000000000003
20
21.575000000000003
42
0.41421356237309503
10
-183.5
20
22.074999999999999
10
-183.5
20
35.075000000000003
42
0.41421356237309503
10
-184.00000000000003
20
35.575000000000003
10
-197.00000000000003
20
35.575000000000003
42
0.41421356237309503
10
-197.5
20
35.075000000000003
10
-197.50000000000003
20
22.074999999999999
42
0.41421356237309503
10
-197.00000000000003
20
21.575000000000003
0
LWPOLYLINE
5
147
100
AcDbEntity
8
0
100
AcDbPolyline
90
8
70
1
43
0.0
10
-250.67500000000001
20
2.5249999999999999
42
0.41421356237309503
10
-250.17500000000001
20
3.0249999999999999
10
-250.17500000000001
20
16.024999999999999
42
0.41421356237309503
10
-250.67500000000001
20
16.524999999999999
10
-263.67500000000001
20
16.525000000000002
42
0.41421356237309503
10
-264.17500000000007
20
16.024999999999999
10
-264.17500000000007
20
3.0249999999999999
42
0.41421356237309503
10
-263.67500000000001
20
2.5249999999999901
0
LWPOLYLINE
5
148
100
AcDbEntity
8
0
100
AcDbPolyline
90
8
70
1
43
0.0
10
-221.59999999999999
20
35.075000000000003
10
-221.59999999999999
20
22.074999999999999
42
-0.41421356237309503
10
-222.10000000000002
20
21.575000000000003
10
-235.10000000000002
20
21.574999999999992
42
-0.41421356237309503
10
-235.60000000000002
20
22.074999999999999
10
-235.60000000000002
20
35.075000000000003
42
-0.41421356237309503
10
-235.10000000000002
20
35.575000000000003
10
-222.10000000000002
20
35.57500000000001
42
-0.41421356237309503
0
LWPOLYLINE
5
149
100
AcDbEntity
8
0
100
AcDbPolyline
90
8
70
1
43
0.0
10
-241.15000000000003
20
21.575000000000003
42
0.41421356237309503
10
-240.65000000000001
20
22.074999999999999
10
-240.65000000000001
20
35.075000000000003
42
0.41421356237309503
10
-241.15000000000003
20
35.575000000000003
10
-254.15000000000003
20
35.575000000000003
42
0.41421356237309503
10
-254.65000000000003
20
35.075000000000003
10
-254.65000000000003
20
22.074999999999999
42
0.41421356237309503
10
-254.15000000000003
20
21.575000000000003
0
LWPOLYLINE
5
150
100
AcDbEntity
8
0
100
AcDbPolyline
90
8
70
1
43
0.0
10
-107.80000000000001
20
21.575000000000003
42
0.41421356237309503
10
-107.30000000000003
20
22.074999999999999
10
-107.30000000000001
20
35.075000000000003
42
0.41421356237309503
10
-107.80000000000001
20
35.575000000000003
10
-120.8
20
35.575000000000003
42
0.41421356237309503
10
-121.30000000000001
20
35.075000000000003
10
-121.30000000000001
20
22.074999999999999
42
0.41421356237309503
10
-120.8
20
21.575000000000003
0
LWPOLYLINE
5
151
100
AcDbEntity
8
0
100
AcDbPolyline
90
8
70
1
43
0.0
10
-98.275000000000006
20
2.5249999999999999
42
0.41421356237309503
10
-97.775000000000006
20
3.0249999999999999
10
-97.775000000000006
20
16.024999999999999
42
0.41421356237309503
10
-98.275000000000006
20
16.524999999999999
10
-111.27500000000001
20
16.525000000000002
42
0.41421356237309503
10
-111.77500000000002
20
16.024999999999999
10
-111.77500000000002
20
3.0249999999999999
42
0.41421356237309503
10
-111.27500000000001
20
2.5249999999999901
0
LWPOLYLINE
5
152
100
AcDbEntity
8
0
100
AcDbPolyline
90
8
70
1
43
0.0
10
-41.125
20
2.5249999999999999
42
0.41421356237309503
10
-40.625
20
3.0249999999999999
10
-40.625
20
16.024999999999999
42
0.41421356237309503
10
-41.125
20
16.524999999999999
10
-54.125000000000007
20
16.525000000000002
42
0.41421356237309503
10
-54.625
20
16.024999999999999
10
-54.625
20
3.0249999999999999
42
0.41421356237309503
10
-54.125000000000007
20
2.5249999999999999
0
LWPOLYLINE
5
153
100
AcDbEntity
8
0
100
AcDbPolyline
90
8
70
1
43
0.0
10
-117.32500000000002
20
2.5249999999999999
42
0.41421356237309503
10
-116.82500000000002
20
3.0249999999999999
10
-116.82500000000002
20
16.024999999999999
42
0.41421356237309503
10
-117.32500000000002
20
16.524999999999999
10
-130.32499999999999
20
16.525000000000002
42
0.41421356237309503
10
-130.82499999999999
20
16.024999999999999
10
-130.82499999999999
20
3.0249999999999999
42
0.41421356237309503
10
-130.32499999999999
20
2.5249999999999999
0
LWPOLYLINE
5
154
100
AcDbEntity
8
0
100
AcDbPolyline
90
8
70
1
43
0.0
10
-116.53750000000001
20
60.174999999999997
42
0.41421356237309503
10
-116.03749999999999
20
59.674999999999997
10
-103.03750000000001
20
59.675000000000004
42
0.41421356237309503
10
-102.53749999999999
20
60.174999999999997
10
-102.53749999999999
20
73.174999999999997
42
0.41421356237309503
10
-103.03750000000001
20
73.674999999999997
10
-116.03749999999999
20
73.674999999999997
42
0.41421356237309503
10
-116.53750000000001
20
73.174999999999997
0
LWPOLYLINE
5
155
100
AcDbEntity
8
0
100
AcDbPolyline
90
8
70
1
43
0.0
10
-64.9375
20
59.675000000000004
42
0.41421356237309503
10
-64.4375
20
60.174999999999997
10
-64.4375
20
73.174999999999997
42
0.41421356237309503
10
-64.9375
20
73.674999999999997
10
-77.9375
20
73.674999999999997
42
0.41421356237309503
10
-78.4375
20
73.174999999999997
10
-78.4375
20
60.174999999999997
42
0.41421356237309503
10
-77.9375
20
59.675000000000004
0
LWPOLYLINE
5
156
100
AcDbEntity
8
0
100
AcDbPolyline
90
8
70
1
43
0.0
10
-174.47500000000002
20
2.5249999999999999
42
0.41421356237309503
10
-173.97500000000002
20
3.0249999999999999
10
-173.97500000000002
20
16.024999999999999
42
0.41421356237309503
10
-174.47500000000002
20
16.524999999999999
10
-187.47499999999999
20
16.525000000000002
42
0.41421356237309503
10
-187.97499999999999
20
16.024999999999999
10
-187.97499999999999
20
3.0249999999999999
42
0.41421356237309503
10
-187.47499999999999
20
2.5249999999999999
0
LWPOLYLINE
5
157
100
AcDbEntity
8
0
100
AcDbPolyline
90
8
70
1
43
0.0
10
-159.40000000000001
20
22.074999999999999
42
0.41421356237309503
10
-158.90000000000001
20
21.574999999999992
10
-145.90000000000001
20
21.575000000000003
42
0.41421356237309503
10
-145.40000000000001
20
22.074999999999999
10
-145.40000000000001
20
35.075000000000003
42
0.41421356237309503
10
-145.90000000000001
20
35.575000000000003
10
-158.90000000000001
20
35.575000000000003
42
0.41421356237309503
10
-159.40000000000001
20
35.075000000000003
0
LWPOLYLINE
5
158
100
AcDbEntity
8
0
100
AcDbPolyline
90
8
70
1
43
0.0
10
-231.625
20
2.5249999999999999
42
0.41421356237309503
10
-231.125
20
3.0249999999999999
10
-231.125
20
16.024999999999999
42
0.41421356237309503
10
-231.625
20
16.524999999999999
10
-244.62500000000003
20
16.525000000000002
42
0.41421356237309503
10
-245.12500000000003
20
16.024999999999999
10
-245.12500000000003
20
3.0249999999999999
42
0.41421356237309503
10
-244.62500000000003
20
2.5249999999999901
0
LWPOLYLINE
5
159
100
AcDbEntity
8
0
100
AcDbPolyline
90
8
70
1
43
0.0
10
-212.57499999999999
20
2.5249999999999999
42
0.41421356237309503
10
-212.07499999999999
20
3.0249999999999999
10
-212.07499999999999
20
16.024999999999999
42
0.41421356237309503
10
-212.57499999999999
20
16.524999999999999
10
-225.57500000000002
20
16.525000000000002
42
0.41421356237309503
10
-226.07500000000002
20
16.024999999999999
10
-226.07500000000002
20
3.0249999999999999
42
0.41421356237309503
10
-225.57500000000002
20
2.5249999999999999
0
LWPOLYLINE
5
160
100
AcDbEntity
8
0
100
AcDbPolyline
90
8
70
1
43
0.0
10
-193.52500000000003
20
2.5249999999999999
42
0.41421356237309503
10
-193.02500000000003
20
3.0249999999999999
10
-193.02500000000003
20
16.024999999999999
42
0.41421356237309503
10
-193.52500000000003
20
16.524999999999999
10
-206.52500000000003
20
16.525000000000002
42
0.41421356237309503
10
-207.02500000000001
20
16.024999999999999
10
-207.02500000000003
20
3.0249999999999999
42
0.41421356237309503
10
-206.52500000000003
20
2.5249999999999999
0
LWPOLYLINE
5
161
100
AcDbEntity
8
0
100
AcDbPolyline
90
8
70
1
43
0.0
10
-21.575000000000003
20
16.024999999999999
10
-21.575000000000003
20
3.0249999999999999
42
-0.41421356237309503
10
-22.074999999999999
20
2.5249999999999999
10
-35.075000000000003
20
2.5250000000000017
42
-0.41421356237309503
10
-35.575000000000003
20
3.0249999999999999
10
-35.575000000000003
20
16.024999999999999
42
-0.41421356237309503
10
-35.075000000000003
20
16.525000000000002
10
-22.074999999999999
20
16.524999999999999
42
-0.41421356237309503
0
LWPOLYLINE
5
162
100
AcDbEntity
8
0
100
AcDbPolyline
90
8
70
1
43
0.0
10
-154.92500000000001
20
16.024999999999999
10
-154.92500000000001
20
3.0249999999999999
42
-0.41421356237309503
10
-155.42500000000001
20
2.5249999999999999
10
-168.42500000000001
20
2.5249999999999928
42
-0.41421356237309503
10
-168.92500000000001
20
3.0249999999999999
10
-168.92500000000001
20
16.024999999999999
42
-0.41421356237309503
10
-168.42500000000001
20
16.525000000000002
10
-155.42500000000001
20
16.525000000000006
42
-0.41421356237309503
0
LWPOLYLINE
5
163
100
AcDbEntity
8
0
100
AcDbPolyline
90
8
70
1
43
0.0
10
-92.725000000000009
20
3.0249999999999999
42
0.41421356237309503
10
-92.224999999999994
20
2.5249999999999928
10
-79.224999999999994
20
2.5249999999999999
42
0.41421356237309503
10
-78.724999999999994
20
3.0249999999999999
10
-78.724999999999994
20
16.024999999999999
42
0.41421356237309503
10
-79.224999999999994
20
16.524999999999999
10
-92.224999999999994
20
16.525000000000002
42
0.41421356237309503
10
-92.724999999999994
20
16.024999999999999
0
LWPOLYLINE
5
164
100
AcDbEntity
8
0
100
AcDbPolyline
90
8
70
1
43
0.0
10
-98.75
20
77.224999999999994
10
-98.750000000000014
20
91.225000000000009
42
-0.41421356237309503
10
-98.250000000000014
20
91.725000000000009
10
-92.25
20
91.725000000000009
42
-0.41421356237309503
10
-91.749999999999986
20
91.225000000000009
10
-91.75
20
77.224999999999994
42
-0.41421356237309503
10
-92.25
20
76.725000000000009
10
-98.250000000000014
20
76.725000000000009
42
-0.41421356237309503
0
LWPOLYLINE
5
165
100
AcDbEntity
8
0
100
AcDbPolyline
90
8
70
1
43
0.0
10
-194.00000000000003
20
77.224999999999994
10
-194.00000000000003
20
91.225000000000009
42
-0.41421356237309503
10
-193.5
20
91.725000000000009
10
-187.5
20
91.725000000000009
42
-0.41421356237309503
10
-187
20
91.225000000000009
10
-187
20
77.224999999999994
42
-0.41421356237309503
10
-187.5
20
76.725000000000009
10
-193.5
20
76.724999999999994
42
-0.41421356237309503
0
LWPOLYLINE
5
166
100
AcDbEntity
8
0
100
AcDbPolyline
90
24
70
1
43
0.0
10
-130.27607352856805
20
45.811609348458248
42
0.65119341541740461
10
-131.11250000000001
20
45.441721217640499
10
-131.11250000000001
20
41.125
42
-0.41421356237309503
10
-131.61250000000001
20
40.625
10
-144.61250000000001
20
40.624999999999993
42
-0.41421356237309503
10
-145.11250000000001
20
41.125
10
-145.11250000000001
20
54.125000000000007
42
-0.41421356237309503
10
-144.61250000000001
20
54.625
10
-131.61250000000001
20
54.625000000000014
42
-0.41421356237309503
10
-131.11250000000001
20
54.125000000000007
10
-131.11250000000001
20
49.880378782358704
42
0.65119341566794886
10
-130.27607352830768
20
49.510490651777658
42
-0.38842040935098798
10
-126.90107352939718
20
49.500669296516591
42
0.65326739723810434
10
-126.0625
20
49.868593154389409
10
-126.0625
20
54.125000000000007
42
-0.41421356237309503
10
-125.5625
20
54.625
10
-112.56250000000001
20
54.625000000000014
42
-0.41421356237309503
10
-112.0625
20
54.125000000000007
10
-112.0625
20
41.125
42
-0.41421356237309503
10
-112.56250000000001
20
40.625
10
-125.5625
20
40.624999999999993
42
-0.41421356237309503
10
-126.06250000000001
20
41.125
10
-126.06250000000001
20
45.4535068456114
42
0.65326739583946558
10
-126.90107352795363
20
45.821430704810886
42
-0.38842040961712154
0
LWPOLYLINE
5
167
100
AcDbEntity
8
0
100
AcDbPolyline
90
8
70
1
43
0.0
10
-158.90000000000001
20
92.724999999999994
10
-136.375
20
92.725000000000009
42
-0.41421356237309503
10
-135.875
20
92.224999999999994
10
-135.87500000000003
20
79.224999999999994
42
-0.41421356237309503
10
-136.375
20
78.724999999999994
10
-158.90000000000001
20
78.724999999999994
42
-0.41421356237309503
10
-159.40000000000001
20
79.224999999999994
10
-159.40000000000001
20
92.224999999999994
42
-0.41421356237309503
0
LWPOLYLINE
5
168
100
AcDbEntity
8
0
100
AcDbPolyline
90
20
70
1
43
0.0
10
-0.18811459999999808
20
53.825600000000009
42
0.41421356237309503
10
-0.68811459999999813
20
54.325600000000009
10
-3.6897099986201338
20
54.325600865185422
42
-0.99958410921850127
10
-3.6876301124797499
20
59.325600000000009
10
-0.68811459999999824
20
59.325600000000009
42
0.41421356237309515
10
-0.18811459999999808
20
59.825600000000001
10
-0.18811459999999808
20
94.090187099999994
42
0.41421356237309798
10
-1.18811460000001
20
95.090187099999994
10
-284.56303000000003
20
95.090187099999994
42
0.41421356237309503
10
-285.56303000000008
20
94.090187099999994
10
-285.56303000000003
20
59.825600000000001
42
0.41421356237309503
10
-285.06303000000003
20
59.325600000000009
10
-282.06347988751997
20
59.325600000000009
42
-0.99999999999999989
10
-282.06347988751997
20
54.325600000000009
10
-285.06303000000003
20
54.325600000000009
42
0.41421356237309503
10
-285.56303000000003
20
53.825600000000009
10
-285.56303000000003
20
1.1627499999999813
42
0.41421356237309542
10
-284.56303000000003
20
0.16274999999997986
10
-1.1881145999999987
20
0.16274999999998499
42
0.4142135623730917
10
-0.18811460000001001
20
1.16274999999998
0
LWPOLYLINE
5
169
100
AcDbEntity
8
0
100
AcDbPolyline
90
8
70
1
43
0.0
10
-282.34375
20
53.537999999999997
10
-268.34375000000006
20
53.537999999999997
42
-0.41421356237309503
10
-267.84375000000006
20
53.03799999999999
10
-267.84375000000006
20
47.037999999999997
42
-0.41421356237309503
10
-268.34375000000006
20
46.537999999999997
10
-282.34375
20
46.537999999999982
42
-0.41421356237309503
10
-282.84375
20
47.037999999999997
10
-282.84375
20
53.037999999999997
42
-0.41421356237309503
0
CIRCLE
5
170
100
AcDbEntity
8
0
100
AcDbCircle
10
260.42502999999999
20
28.225750000000005
30
6.7304668782686207e-17
40
2.5000000000000107
210
0
220
0
230
-1
0
CIRCLE
5
171
100
AcDbEntity
8
0
100
AcDbCircle
10
25.57573
20
28.225750000000005
30
6.7304668782686207e-17
40
2.5
210
0
220
0
230
-1
0
ENDSEC
0
SECTION
2
OBJECTS
0
DICTIONARY
5
C
100
AcDbDictionary
3
ACAD_GROUP
350
D
3
ACAD_MLINESTYLE
350
17
0
DICTIONARY
5
D
100
AcDbDictionary
0
DICTIONARY
5
1A
330
C
100
AcDbDictionary
0
DICTIONARY
5
17
100
AcDbDictionary
0
ENDSEC
0
EOF
